  0
SECTION
  2
HEADER
  9
$ACADVER
  1
AC1006
  9
$EXTMIN
 10
0.000000
 20
0.000000
 30
0.000000
  9
$EXTMAX
 10
910.000000
 20
682.000000
 30
0.000000
  0
ENDSEC
  0
SECTION
  2
ENTITIES
  0
POLYLINE
  8
0
 66
1
 70
1
  0
VERTEX
  8
0
 10
491.000000
 20
655.215608
 42
0.188986
  0
VERTEX
  8
0
 10
491.156007
 20
654.817602
 42
0.025829
  0
VERTEX
  8
0
 10
491.807813
 20
654.183010
 42
0.026732
  0
VERTEX
  8
0
 10
492.696800
 20
653.483155
 42
0.019650
  0
VERTEX
  8
0
 10
493.750000
 20
652.801870
 42
-0.030422
  0
VERTEX
  8
0
 10
495.163279
 20
651.843883
 42
-0.007955
  0
VERTEX
  8
0
 10
497.307813
 20
650.136346
 42
-0.008053
  0
VERTEX
  8
0
 10
499.692569
 20
648.109482
 42
-0.008162
  0
VERTEX
  8
0
 10
502.000000
 20
646.015762
 42
-0.004922
  0
VERTEX
  8
0
 10
504.971187
 20
643.174525
 42
-0.056554
  0
VERTEX
  8
0
 10
505.992425
 20
641.924284
 42
-0.463773
  0
VERTEX
  8
0
 10
505.845741
 20
641.444255
 42
-0.151564
  0
VERTEX
  8
0
 10
505.000000
 20
641.355210
 42
0.006116
  0
VERTEX
  8
0
 10
486.046388
 20
644.876794
 42
0.010740
  0
VERTEX
  8
0
 10
470.281034
 20
647.259395
 42
0.011971
  0
VERTEX
  8
0
 10
455.690423
 20
648.790791
 42
0.010559
  0
VERTEX
  8
0
 10
440.419559
 20
649.700746
 42
0.014554
  0
VERTEX
  8
0
 10
428.684691
 20
649.809803
 42
0.024687
  0
VERTEX
  8
0
 10
418.887648
 20
649.130976
 42
0.027187
  0
VERTEX
  8
0
 10
409.902654
 20
647.561764
 42
0.023509
  0
VERTEX
  8
0
 10
400.685443
 20
644.968350
 42
0.027849
  0
VERTEX
  8
0
 10
389.916472
 20
640.704874
 42
0.029312
  0
VERTEX
  8
0
 10
379.877233
 20
635.333778
 42
0.024742
  0
VERTEX
  8
0
 10
369.206507
 20
628.043838
 42
0.012243
  0
VERTEX
  8
0
 10
356.377437
 20
617.810850
 42
0.000000
  0
VERTEX
  8
0
 10
348.254873
 20
611.000000
 42
0.000000
  0
VERTEX
  8
0
 10
340.811096
 20
611.000000
 42
0.058075
  0
VERTEX
  8
0
 10
322.411429
 20
608.855629
 42
0.045691
  0
VERTEX
  8
0
 10
303.368548
 20
602.473925
 42
0.039329
  0
VERTEX
  8
0
 10
283.227801
 20
591.645662
 42
0.024767
  0
VERTEX
  8
0
 10
261.500000
 20
576.086809
 42
0.014399
  0
VERTEX
  8
0
 10
240.724566
 20
558.596544
 42
0.010944
  0
VERTEX
  8
0
 10
218.953231
 20
538.296526
 42
0.011126
  0
VERTEX
  8
0
 10
199.218261
 20
518.195810
 42
0.023371
  0
VERTEX
  8
0
 10
184.999260
 20
501.560114
 42
-0.001614
  0
VERTEX
  8
0
 10
181.519414
 20
497.110718
 42
-0.001732
  0
VERTEX
  8
0
 10
178.091807
 20
492.788036
 42
-0.001638
  0
VERTEX
  8
0
 10
175.122806
 20
489.095122
 42
-0.008210
  0
VERTEX
  8
0
 10
173.419659
 20
487.060114
 42
0.022206
  0
VERTEX
  8
0
 10
161.669280
 20
472.194028
 42
0.004594
  0
VERTEX
  8
0
 10
142.418579
 20
444.957694
 42
0.005061
  0
VERTEX
  8
0
 10
123.244539
 20
416.687094
 42
0.013444
  0
VERTEX
  8
0
 10
110.304767
 20
396.000000
 42
0.001582
  0
VERTEX
  8
0
 10
95.411993
 20
370.518336
 42
0.006055
  0
VERTEX
  8
0
 10
86.378560
 20
354.505579
 42
0.002717
  0
VERTEX
  8
0
 10
80.099387
 20
342.904035
 42
0.330295
  0
VERTEX
  8
0
 10
80.332419
 20
341.334248
 42
0.317339
  0
VERTEX
  8
0
 10
80.725678
 20
341.266409
 42
0.003462
  0
VERTEX
  8
0
 10
83.312093
 20
342.517945
 42
0.009186
  0
VERTEX
  8
0
 10
86.331636
 20
344.074521
 42
0.005661
  0
VERTEX
  8
0
 10
89.828931
 20
346.010913
 42
-0.020703
  0
VERTEX
  8
0
 10
101.340216
 20
351.939427
 42
-0.006166
  0
VERTEX
  8
0
 10
119.382419
 20
360.036841
 42
-0.002797
  0
VERTEX
  8
0
 10
138.170000
 20
368.067351
 42
-0.099915
  0
VERTEX
  8
0
 10
142.790619
 20
369.000000
 42
-0.585992
  0
VERTEX
  8
0
 10
143.203405
 20
368.263222
 42
-0.027804
  0
VERTEX
  8
0
 10
141.189019
 20
365.350301
 42
-0.010837
  0
VERTEX
  8
0
 10
136.660757
 20
359.776745
 42
-0.000961
  0
VERTEX
  8
0
 10
124.917479
 20
346.000000
 42
0.008253
  0
VERTEX
  8
0
 10
114.562905
 20
333.487327
 42
0.005702
  0
VERTEX
  8
0
 10
103.242175
 20
319.002449
 42
0.005748
  0
VERTEX
  8
0
 10
92.690463
 20
304.844951
 42
0.011889
  0
VERTEX
  8
0
 10
84.841726
 20
293.500000
 42
0.010653
  0
VERTEX
  8
0
 10
79.098601
 20
284.342364
 42
0.007126
  0
VERTEX
  8
0
 10
72.902959
 20
273.635455
 42
0.005858
  0
VERTEX
  8
0
 10
65.843330
 20
260.670158
 42
0.003135
  0
VERTEX
  8
0
 10
57.412080
 20
244.500000
 42
0.003698
  0
VERTEX
  8
0
 10
48.646220
 20
227.112532
 42
0.012290
  0
VERTEX
  8
0
 10
43.251908
 20
215.503612
 42
0.014256
  0
VERTEX
  8
0
 10
38.859510
 20
204.566792
 42
0.006438
  0
VERTEX
  8
0
 10
33.698271
 20
190.000000
 42
0.004093
  0
VERTEX
  8
0
 10
29.556001
 20
177.477348
 42
0.011724
  0
VERTEX
  8
0
 10
26.954253
 20
168.688842
 42
0.016206
  0
VERTEX
  8
0
 10
25.442528
 20
162.289046
 42
0.049930
  0
VERTEX
  8
0
 10
25.000000
 20
157.868576
 42
0.150549
  0
VERTEX
  8
0
 10
25.424533
 20
156.490578
 42
0.421745
  0
VERTEX
  8
0
 10
26.317750
 20
156.332770
 42
0.044250
  0
VERTEX
  8
0
 10
28.390702
 20
158.121012
 42
0.001802
  0
VERTEX
  8
0
 10
35.250000
 20
165.238139
 42
-0.008308
  0
VERTEX
  8
0
 10
45.444988
 20
175.544549
 42
-0.009120
  0
VERTEX
  8
0
 10
55.669974
 20
185.184933
 42
-0.009731
  0
VERTEX
  8
0
 10
65.027087
 20
193.363302
 42
-0.022770
  0
VERTEX
  8
0
 10
72.405644
 20
199.010865
 42
-0.004464
  0
VERTEX
  8
0
 10
75.121414
 20
200.864143
 42
-0.007339
  0
VERTEX
  8
0
 10
77.455382
 20
202.377384
 42
-0.002184
  0
VERTEX
  8
0
 10
79.479261
 20
203.635488
 42
-0.347337
  0
VERTEX
  8
0
 10
79.726901
 20
203.606432
 42
-0.318056
  0
VERTEX
  8
0
 10
79.770569
 20
203.351305
 42
-0.002231
  0
VERTEX
  8
0
 10
78.760809
 20
201.265308
 42
-0.007332
  0
VERTEX
  8
0
 10
77.536473
 20
198.854715
 42
-0.004496
  0
VERTEX
  8
0
 10
76.026506
 20
196.048221
 42
0.011031
  0
VERTEX
  8
0
 10
72.339756
 20
188.975895
 42
0.006097
  0
VERTEX
  8
0
 10
68.134368
 20
180.186812
 42
0.003900
  0
VERTEX
  8
0
 10
62.491123
 20
167.760563
 42
0.001056
  0
VERTEX
  8
0
 10
53.752290
 20
148.000000
 42
0.003499
  0
VERTEX
  8
0
 10
46.341770
 20
130.821635
 42
0.008776
  0
VERTEX
  8
0
 10
41.245509
 20
118.162277
 42
0.009743
  0
VERTEX
  8
0
 10
36.911610
 20
106.128482
 42
0.005340
  0
VERTEX
  8
0
 10
32.049122
 20
91.232153
 42
0.009365
  0
VERTEX
  8
0
 10
28.211674
 20
78.187518
 42
0.003560
  0
VERTEX
  8
0
 10
23.330794
 20
59.858905
 42
0.001418
  0
VERTEX
  8
0
 10
18.504963
 20
40.983324
 42
0.061946
  0
VERTEX
  8
0
 10
18.000000
 20
36.923139
 42
0.311277
  0
VERTEX
  8
0
 10
18.220699
 20
36.602981
 42
0.151419
  0
VERTEX
  8
0
 10
18.740439
 20
36.570110
 42
0.064585
  0
VERTEX
  8
0
 10
19.602239
 20
36.900790
 42
0.022227
  0
VERTEX
  8
0
 10
20.750000
 20
37.588514
 42
-0.009089
  0
VERTEX
  8
0
 10
22.734913
 20
38.849856
 42
-0.000291
  0
VERTEX
  8
0
 10
30.863373
 20
43.803640
 42
-0.000562
  0
VERTEX
  8
0
 10
40.459345
 20
49.629372
 42
-0.000390
  0
VERTEX
  8
0
 10
51.316803
 20
56.192707
 42
-0.010603
  0
VERTEX
  8
0
 10
76.254609
 20
70.528748
 42
-0.007302
  0
VERTEX
  8
0
 10
105.075990
 20
85.751395
 42
-0.007328
  0
VERTEX
  8
0
 10
132.904538
 20
99.423812
 42
-0.016973
  0
VERTEX
  8
0
 10
154.264093
 20
108.658406
 42
0.002370
  0
VERTEX
  8
0
 10
159.991913
 20
110.938653
 42
0.002735
  0
VERTEX
  8
0
 10
165.429773
 20
113.168047
 42
0.002449
  0
VERTEX
  8
0
 10
170.016553
 20
115.104303
 42
0.015978
  0
VERTEX
  8
0
 10
172.284072
 20
116.161562
 42
-0.020081
  0
VERTEX
  8
0
 10
176.017462
 20
117.865157
 42
-0.006031
  0
VERTEX
  8
0
 10
181.829128
 20
120.158647
 42
-0.003872
  0
VERTEX
  8
0
 10
190.580924
 20
123.413630
 42
-0.000955
  0
VERTEX
  8
0
 10
205.000000
 20
128.618528
 42
-0.011452
  0
VERTEX
  8
0
 10
215.107719
 20
131.986119
 42
-0.006988
  0
VERTEX
  8
0
 10
227.181391
 20
135.519807
 42
-0.001599
  0
VERTEX
  8
0
 10
239.492421
 20
138.894571
 42
-0.268634
  0
VERTEX
  8
0
 10
240.782734
 20
138.550599
 42
-0.399648
  0
VERTEX
  8
0
 10
240.788913
 20
138.303440
 42
-0.025201
  0
VERTEX
  8
0
 10
240.225433
 20
137.740419
 42
-0.026056
  0
VERTEX
  8
0
 10
239.396587
 20
137.066731
 42
-0.015088
  0
VERTEX
  8
0
 10
238.336764
 20
136.341314
 42
0.017902
  0
VERTEX
  8
0
 10
232.015074
 20
131.961872
 42
0.004405
  0
VERTEX
  8
0
 10
221.957632
 20
124.308804
 42
0.004466
  0
VERTEX
  8
0
 10
212.014088
 20
116.459987
 42
0.016839
  0
VERTEX
  8
0
 10
206.000000
 20
111.282200
 42
-0.001488
  0
VERTEX
  8
0
 10
203.291410
 20
108.801498
 42
-0.001424
  0
VERTEX
  8
0
 10
200.528125
 20
106.300137
 42
-0.001410
  0
VERTEX
  8
0
 10
198.076702
 20
104.106224
 42
-0.005115
  0
VERTEX
  8
0
 10
196.500000
 20
102.731776
 42
0.019874
  0
VERTEX
  8
0
 10
195.392404
 20
101.707193
 42
0.032904
  0
VERTEX
  8
0
 10
194.554203
 20
100.749159
 42
0.036141
  0
VERTEX
  8
0
 10
194.036107
 20
99.959664
 42
0.334839
  0
VERTEX
  8
0
 10
194.088776
 20
99.579629
 42
0.274099
  0
VERTEX
  8
0
 10
194.620251
 20
99.442893
 42
0.002080
  0
VERTEX
  8
0
 10
199.087936
 20
100.763478
 42
0.006862
  0
VERTEX
  8
0
 10
204.256372
 20
102.392251
 42
0.004257
  0
VERTEX
  8
0
 10
210.280400
 20
104.438986
 42
-0.008460
  0
VERTEX
  8
0
 10
224.338049
 20
109.083801
 42
-0.006067
  0
VERTEX
  8
0
 10
240.194857
 20
113.816782
 42
-0.005974
  0
VERTEX
  8
0
 10
256.517401
 20
118.263661
 42
-0.007142
  0
VERTEX
  8
0
 10
272.000000
 20
122.048456
 42
-0.015765
  0
VERTEX
  8
0
 10
304.227442
 20
128.378285
 42
-0.020614
  0
VERTEX
  8
0
 10
334.032008
 20
132.008178
 42
-0.021908
  0
VERTEX
  8
0
 10
362.450825
 20
133.036295
 42
-0.022733
  0
VERTEX
  8
0
 10
390.500000
 20
131.545309
 42
-0.004930
  0
VERTEX
  8
0
 10
403.338517
 20
130.147815
 42
-0.015168
  0
VERTEX
  8
0
 10
411.981256
 20
128.853804
 42
-0.017150
  0
VERTEX
  8
0
 10
419.946567
 20
127.128989
 42
-0.007843
  0
VERTEX
  8
0
 10
430.219557
 20
124.360583
 42
-0.026313
  0
VERTEX
  8
0
 10
440.203879
 20
120.923623
 42
-0.034741
  0
VERTEX
  8
0
 10
448.851090
 20
116.708093
 42
-0.034366
  0
VERTEX
  8
0
 10
456.903156
 20
111.296271
 42
-0.024920
  0
VERTEX
  8
0
 10
465.096313
 20
104.249856
 42
-0.011450
  0
VERTEX
  8
0
 10
468.980225
 20
100.384353
 42
-0.028668
  0
VERTEX
  8
0
 10
471.578935
 20
97.345932
 42
-0.036614
  0
VERTEX
  8
0
 10
473.416092
 20
94.523625
 42
-0.034603
  0
VERTEX
  8
0
 10
474.861273
 20
91.410872
 42
-0.070937
  0
VERTEX
  8
0
 10
476.818320
 20
82.814633
 42
-0.054730
  0
VERTEX
  8
0
 10
476.557112
 20
73.192762
 42
-0.044260
  0
VERTEX
  8
0
 10
474.006004
 20
62.044102
 42
-0.023476
  0
VERTEX
  8
0
 10
469.005031
 20
48.772282
 42
0.002431
  0
VERTEX
  8
0
 10
466.133689
 20
42.026845
 42
0.035225
  0
VERTEX
  8
0
 10
465.299772
 20
39.569463
 42
0.179783
  0
VERTEX
  8
0
 10
465.408018
 20
38.479966
 42
0.286473
  0
VERTEX
  8
0
 10
466.176986
 20
38.000000
 42
0.084048
  0
VERTEX
  8
0
 10
467.759741
 20
38.267949
 42
0.000456
  0
VERTEX
  8
0
 10
482.413303
 20
43.390832
 42
0.002278
  0
VERTEX
  8
0
 10
496.122904
 20
48.268002
 42
0.005811
  0
VERTEX
  8
0
 10
506.003782
 20
51.964240
 42
0.022391
  0
VERTEX
  8
0
 10
521.015858
 20
58.566896
 42
0.017590
  0
VERTEX
  8
0
 10
536.666163
 20
67.001408
 42
0.017338
  0
VERTEX
  8
0
 10
551.958271
 20
76.677629
 42
0.019644
  0
VERTEX
  8
0
 10
565.900066
 20
87.017150
 42
0.017108
  0
VERTEX
  8
0
 10
575.796878
 20
95.551524
 42
0.007343
  0
VERTEX
  8
0
 10
588.438494
 20
107.579051
 42
0.006273
  0
VERTEX
  8
0
 10
600.316512
 20
119.512885
 42
0.037425
  0
VERTEX
  8
0
 10
605.941678
 20
126.250000
 42
-0.011108
  0
VERTEX
  8
0
 10
607.305460
 20
128.069929
 42
-0.016226
  0
VERTEX
  8
0
 10
608.592289
 20
129.604688
 42
-0.011657
  0
VERTEX
  8
0
 10
609.711442
 20
130.797578
 42
-0.201140
  0
VERTEX
  8
0
 10
610.194271
 20
131.000000
 42
-0.288809
  0
VERTEX
  8
0
 10
611.222996
 20
130.351717
 42
-0.042525
  0
VERTEX
  8
0
 10
612.133290
 20
127.941837
 42
-0.039053
  0
VERTEX
  8
0
 10
612.783534
 20
124.702487
 42
-0.030017
  0
VERTEX
  8
0
 10
613.000000
 20
121.100056
 42
-0.070725
  0
VERTEX
  8
0
 10
611.702446
 20
111.972651
 42
-0.046817
  0
VERTEX
  8
0
 10
607.808716
 20
102.109502
 42
-0.041326
  0
VERTEX
  8
0
 10
601.521832
 20
91.905006
 42
-0.030783
  0
VERTEX
  8
0
 10
593.034996
 20
81.753467
 42
0.002268
  0
VERTEX
  8
0
 10
589.571360
 20
78.060245
 42
0.003639
  0
VERTEX
  8
0
 10
586.654030
 20
74.874950
 42
0.000773
  0
VERTEX
  8
0
 10
584.121264
 20
72.060074
 42
0.184850
  0
VERTEX
  8
0
 10
584.000000
 20
71.743275
 42
0.396843
  0
VERTEX
  8
0
 10
584.719576
 20
70.979430
 42
0.006701
  0
VERTEX
  8
0
 10
591.018962
 20
70.687773
 42
0.014172
  0
VERTEX
  8
0
 10
598.273135
 20
70.654964
 42
0.011693
  0
VERTEX
  8
0
 10
606.000000
 20
71.019977
 42
0.028695
  0
VERTEX
  8
0
 10
634.634493
 20
74.704244
 42
0.026571
  0
VERTEX
  8
0
 10
663.418316
 20
81.701337
 42
0.027471
  0
VERTEX
  8
0
 10
690.144603
 20
91.352060
 42
0.038997
  0
VERTEX
  8
0
 10
712.556417
 20
103.003029
 42
0.010922
  0
VERTEX
  8
0
 10
722.317369
 20
109.387029
 42
0.017987
  0
VERTEX
  8
0
 10
730.244000
 20
115.252129
 42
0.017190
  0
VERTEX
  8
0
 10
737.972376
 20
121.859600
 42
0.008962
  0
VERTEX
  8
0
 10
747.163778
 20
130.589772
 42
0.008389
  0
VERTEX
  8
0
 10
752.335774
 20
135.855397
 42
0.017407
  0
VERTEX
  8
0
 10
756.154297
 20
140.166863
 42
0.021921
  0
VERTEX
  8
0
 10
759.007888
 20
143.950390
 42
0.031472
  0
VERTEX
  8
0
 10
761.163778
 20
147.551579
 42
0.007136
  0
VERTEX
  8
0
 10
763.194581
 20
151.627528
 42
0.065589
  0
VERTEX
  8
0
 10
763.809357
 20
153.501631
 42
0.125001
  0
VERTEX
  8
0
 10
763.716926
 20
154.973247
 42
0.051498
  0
VERTEX
  8
0
 10
762.906824
 20
156.815202
 42
-0.035687
  0
VERTEX
  8
0
 10
762.220920
 20
158.250103
 42
-0.061135
  0
VERTEX
  8
0
 10
761.890008
 20
159.532979
 42
-0.067275
  0
VERTEX
  8
0
 10
761.894980
 20
160.768989
 42
-0.054274
  0
VERTEX
  8
0
 10
762.219691
 20
162.057789
 42
0.029174
  0
VERTEX
  8
0
 10
765.715927
 20
173.484632
 42
0.018293
  0
VERTEX
  8
0
 10
768.521376
 20
187.182909
 42
0.017999
  0
VERTEX
  8
0
 10
770.377739
 20
201.444930
 42
0.023287
  0
VERTEX
  8
0
 10
770.995979
 20
214.625000
 42
0.006276
  0
VERTEX
  8
0
 10
770.882322
 20
223.905425
 42
0.023792
  0
VERTEX
  8
0
 10
770.462816
 20
229.691611
 42
0.036999
  0
VERTEX
  8
0
 10
769.783967
 20
233.148406
 42
0.430082
  0
VERTEX
  8
0
 10
768.693155
 20
233.731052
 42
0.147337
  0
VERTEX
  8
0
 10
768.118825
 20
233.325938
 42
0.008568
  0
VERTEX
  8
0
 10
766.810694
 20
231.593597
 42
0.012404
  0
VERTEX
  8
0
 10
765.318646
 20
229.435128
 42
0.008768
  0
VERTEX
  8
0
 10
763.746916
 20
226.941989
 42
-0.019281
  0
VERTEX
  8
0
 10
757.706021
 20
217.791862
 42
-0.010469
  0
VERTEX
  8
0
 10
749.624165
 20
207.004926
 42
-0.010462
  0
VERTEX
  8
0
 10
741.052324
 20
196.509723
 42
-0.018352
  0
VERTEX
  8
0
 10
733.472707
 20
188.250000
 42
-0.004346
  0
VERTEX
  8
0
 10
727.562201
 20
182.368739
 42
-0.046165
  0
VERTEX
  8
0
 10
724.928499
 20
180.230403
 42
-0.098251
  0
VERTEX
  8
0
 10
722.695646
 20
179.302575
 42
-0.049529
  0
VERTEX
  8
0
 10
719.648584
 20
179.000000
 42
-0.030765
  0
VERTEX
  8
0
 10
717.297896
 20
179.144776
 42
-0.040070
  0
VERTEX
  8
0
 10
715.186911
 20
179.579555
 42
-0.040787
  0
VERTEX
  8
0
 10
713.202072
 20
180.337428
 42
-0.033737
  0
VERTEX
  8
0
 10
711.230128
 20
181.450112
 42
-0.034999
  0
VERTEX
  8
0
 10
704.938255
 20
186.244566
 42
-0.102417
  0
VERTEX
  8
0
 10
701.673591
 20
190.578814
 42
-0.098891
  0
VERTEX
  8
0
 10
700.336191
 20
195.943914
 42
-0.031317
  0
VERTEX
  8
0
 10
700.464313
 20
204.232966
 42
0.006642
  0
VERTEX
  8
0
 10
700.682410
 20
207.594716
 42
0.011133
  0
VERTEX
  8
0
 10
700.765167
 20
210.424684
 42
0.004910
  0
VERTEX
  8
0
 10
700.758483
 20
212.769865
 42
0.410508
  0
VERTEX
  8
0
 10
700.525413
 20
213.000000
 42
0.119251
  0
VERTEX
  8
0
 10
699.165935
 20
212.671085
 42
0.014392
  0
VERTEX
  8
0
 10
696.447823
 20
211.173642
 42
0.018131
  0
VERTEX
  8
0
 10
693.745777
 20
209.447112
 42
0.045170
  0
VERTEX
  8
0
 10
691.946819
 20
207.946819
 42
-0.099295
  0
VERTEX
  8
0
 10
689.323826
 20
206.200225
 42
-0.264431
  0
VERTEX
  8
0
 10
687.171404
 20
206.476185
 42
-0.120797
  0
VERTEX
  8
0
 10
685.107372
 20
208.998400
 42
-0.017975
  0
VERTEX
  8
0
 10
682.473720
 20
215.067059
 42
-0.049270
  0
VERTEX
  8
0
 10
678.318920
 20
229.790335
 42
-0.047163
  0
VERTEX
  8
0
 10
677.042321
 20
245.262335
 42
-0.048230
  0
VERTEX
  8
0
 10
678.682807
 20
260.348176
 42
-0.057510
  0
VERTEX
  8
0
 10
683.176080
 20
273.925444
 42
-0.051203
  0
VERTEX
  8
0
 10
692.218084
 20
289.119661
 42
-0.022821
  0
VERTEX
  8
0
 10
706.966078
 20
307.180854
 42
-0.022245
  0
VERTEX
  8
0
 10
722.881494
 20
323.434945
 42
-0.070039
  0
VERTEX
  8
0
 10
735.347493
 20
332.177278
 42
-0.023067
  0
VERTEX
  8
0
 10
736.891224
 20
332.877094
 42
-0.033757
  0
VERTEX
  8
0
 10
738.310627
 20
333.334906
 42
-0.035891
  0
VERTEX
  8
0
 10
739.452746
 20
333.534212
 42
-0.241698
  0
VERTEX
  8
0
 10
739.971553
 20
333.331022
 42
-0.087536
  0
VERTEX
  8
0
 10
740.325103
 20
332.752529
 42
-0.009422
  0
VERTEX
  8
0
 10
740.872887
 20
331.275363
 42
-0.011350
  0
VERTEX
  8
0
 10
741.456537
 20
329.475480
 42
-0.008911
  0
VERTEX
  8
0
 10
742.009767
 20
327.500000
 42
0.022915
  0
VERTEX
  8
0
 10
743.442989
 20
322.884036
 42
0.029598
  0
VERTEX
  8
0
 10
745.195298
 20
318.808412
 42
0.027585
  0
VERTEX
  8
0
 10
746.966876
 20
315.717081
 42
0.260224
  0
VERTEX
  8
0
 10
748.270324
 20
315.028362
 42
0.197279
  0
VERTEX
  8
0
 10
748.916732
 20
315.311323
 42
0.018880
  0
VERTEX
  8
0
 10
750.088596
 20
316.618495
 42
0.021802
  0
VERTEX
  8
0
 10
751.405266
 20
318.352217
 42
0.015471
  0
VERTEX
  8
0
 10
752.733406
 20
320.401752
 42
-0.016253
  0
VERTEX
  8
0
 10
754.309891
 20
322.826218
 42
-0.008719
  0
VERTEX
  8
0
 10
756.402863
 20
325.718092
 42
-0.008673
  0
VERTEX
  8
0
 10
758.642633
 20
328.596476
 42
-0.013426
  0
VERTEX
  8
0
 10
760.684646
 20
330.994147
 42
0.000000
  0
VERTEX
  8
0
 10
765.402480
 20
336.241513
 42
0.000000
  0
VERTEX
  8
0
 10
771.549400
 20
335.748098
 42
-0.016365
  0
VERTEX
  8
0
 10
774.115627
 20
335.457328
 42
-0.014840
  0
VERTEX
  8
0
 10
776.743078
 20
334.992147
 42
-0.015048
  0
VERTEX
  8
0
 10
779.069110
 20
334.435234
 42
-0.045235
  0
VERTEX
  8
0
 10
780.598160
 20
333.867530
 42
-0.057719
  0
VERTEX
  8
0
 10
782.279082
 20
332.810809
 42
-0.137461
  0
VERTEX
  8
0
 10
783.130219
 20
331.621237
 42
-0.069619
  0
VERTEX
  8
0
 10
783.543338
 20
329.671806
 42
-0.007449
  0
VERTEX
  8
0
 10
783.797789
 20
325.043025
 42
-0.033495
  0
VERTEX
  8
0
 10
783.596294
 20
317.567475
 42
-0.009434
  0
VERTEX
  8
0
 10
782.282878
 20
305.971029
 42
-0.008902
  0
VERTEX
  8
0
 10
780.200892
 20
292.143897
 42
-0.006774
  0
VERTEX
  8
0
 10
777.446006
 20
277.073152
 42
0.001171
  0
VERTEX
  8
0
 10
776.508599
 20
272.251109
 42
0.001779
  0
VERTEX
  8
0
 10
775.718514
 20
268.054890
 42
0.000645
  0
VERTEX
  8
0
 10
775.055314
 20
264.436200
 42
0.045023
  0
VERTEX
  8
0
 10
775.000000
 20
263.823152
 42
0.623607
  0
VERTEX
  8
0
 10
777.464546
 20
262.615565
 42
0.016793
  0
VERTEX
  8
0
 10
789.440007
 20
272.563435
 42
0.020718
  0
VERTEX
  8
0
 10
802.666321
 20
285.342169
 42
0.028017
  0
VERTEX
  8
0
 10
813.439968
 20
298.000000
 42
0.005263
  0
VERTEX
  8
0
 10
816.573454
 20
302.220803
 42
0.003639
  0
VERTEX
  8
0
 10
820.033678
 20
307.059375
 42
0.003669
  0
VERTEX
  8
0
 10
823.291732
 20
311.758925
 42
0.007512
  0
VERTEX
  8
0
 10
825.763303
 20
315.500000
 42
-0.009469
  0
VERTEX
  8
0
 10
828.859880
 20
320.147473
 42
-0.048978
  0
VERTEX
  8
0
 10
830.857642
 20
322.497472
 42
-0.071869
  0
VERTEX
  8
0
 10
832.909682
 20
323.977577
 42
-0.035329
  0
VERTEX
  8
0
 10
835.867818
 20
325.265914
 42
0.108298
  0
VERTEX
  8
0
 10
842.540514
 20
329.411133
 42
0.044562
  0
VERTEX
  8
0
 10
849.519286
 20
337.528809
 42
0.040651
  0
VERTEX
  8
0
 10
855.834065
 20
348.068781
 42
0.037529
  0
VERTEX
  8
0
 10
860.556185
 20
359.772397
 42
-0.011776
  0
VERTEX
  8
0
 10
862.077538
 20
364.184765
 42
-0.039217
  0
VERTEX
  8
0
 10
863.365796
 20
366.964539
 42
-0.055167
  0
VERTEX
  8
0
 10
864.804774
 20
368.969173
 42
-0.046629
  0
VERTEX
  8
0
 10
866.724682
 20
370.739171
 42
0.062208
  0
VERTEX
  8
0
 10
872.098922
 20
376.011850
 42
0.029344
  0
VERTEX
  8
0
 10
877.692641
 20
383.981075
 42
0.024425
  0
VERTEX
  8
0
 10
882.132626
 20
392.022197
 42
0.193096
  0
VERTEX
  8
0
 10
882.441803
 20
396.183362
 42
0.112593
  0
VERTEX
  8
0
 10
880.252795
 20
399.905969
 42
0.010284
  0
VERTEX
  8
0
 10
872.673807
 20
407.622886
 42
0.013494
  0
VERTEX
  8
0
 10
863.457585
 20
416.154801
 42
0.012667
  0
VERTEX
  8
0
 10
853.602029
 20
424.364473
 42
0.012186
  0
VERTEX
  8
0
 10
839.129881
 20
435.248833
 42
0.015512
  0
VERTEX
  8
0
 10
825.243973
 20
444.535052
 42
0.014715
  0
VERTEX
  8
0
 10
810.227485
 20
453.313205
 42
0.009360
  0
VERTEX
  8
0
 10
792.274212
 20
462.679249
 42
0.000000
  0
VERTEX
  8
0
 10
769.048424
 20
474.248112
 42
0.000000
  0
VERTEX
  8
0
 10
773.072941
 20
478.820205
 42
0.115830
  0
VERTEX
  8
0
 10
776.334154
 20
484.917387
 42
0.268954
  0
VERTEX
  8
0
 10
775.023991
 20
489.746065
 42
0.098494
  0
VERTEX
  8
0
 10
768.048377
 20
494.356426
 42
0.011809
  0
VERTEX
  8
0
 10
750.704564
 20
500.964894
 42
-0.003755
  0
VERTEX
  8
0
 10
734.834877
 20
506.720710
 42
-0.005169
  0
VERTEX
  8
0
 10
720.668676
 20
512.146664
 42
-0.002722
  0
VERTEX
  8
0
 10
708.662666
 20
516.963807
 42
-0.081667
  0
VERTEX
  8
0
 10
705.892360
 20
518.662219
 42
-0.116309
  0
VERTEX
  8
0
 10
705.146079
 20
519.693831
 42
-0.037287
  0
VERTEX
  8
0
 10
704.546938
 20
521.500888
 42
-0.028898
  0
VERTEX
  8
0
 10
704.072461
 20
523.997194
 42
-0.013460
  0
VERTEX
  8
0
 10
703.733089
 20
527.276153
 42
0.024247
  0
VERTEX
  8
0
 10
702.960573
 20
533.439018
 42
0.010541
  0
VERTEX
  8
0
 10
701.366644
 20
541.540459
 42
0.009439
  0
VERTEX
  8
0
 10
699.517734
 20
549.289377
 42
0.046783
  0
VERTEX
  8
0
 10
697.996952
 20
553.500000
 42
-0.010781
  0
VERTEX
  8
0
 10
697.505419
 20
554.605029
 42
-0.002523
  0
VERTEX
  8
0
 10
696.731284
 20
556.478059
 42
-0.002600
  0
VERTEX
  8
0
 10
695.862576
 20
558.642464
 42
-0.002551
  0
VERTEX
  8
0
 10
695.010811
 20
560.829562
 42
0.056919
  0
VERTEX
  8
0
 10
690.100816
 20
570.260932
 42
0.038244
  0
VERTEX
  8
0
 10
682.547298
 20
579.791984
 42
0.036299
  0
VERTEX
  8
0
 10
673.100023
 20
588.621605
 42
0.036600
  0
VERTEX
  8
0
 10
662.500000
 20
595.965382
 42
0.007526
  0
VERTEX
  8
0
 10
652.422742
 20
601.704016
 42
0.005224
  0
VERTEX
  8
0
 10
640.873040
 20
607.896632
 42
0.004906
  0
VERTEX
  8
0
 10
630.106070
 20
613.391693
 42
0.019571
  0
VERTEX
  8
0
 10
623.350074
 20
616.432706
 42
-0.000420
  0
VERTEX
  8
0
 10
620.202397
 20
617.706959
 42
-0.000107
  0
VERTEX
  8
0
 10
615.105959
 20
619.776382
 42
-0.000109
  0
VERTEX
  8
0
 10
609.288990
 20
622.141316
 42
-0.000111
  0
VERTEX
  8
0
 10
603.500000
 20
624.497847
 42
0.010120
  0
VERTEX
  8
0
 10
576.387436
 20
634.906933
 42
0.014127
  0
VERTEX
  8
0
 10
551.717253
 20
643.029736
 42
0.015273
  0
VERTEX
  8
0
 10
528.274703
 20
649.247915
 42
0.016065
  0
VERTEX
  8
0
 10
504.886736
 20
653.906416
 42
0.000629
  0
VERTEX
  8
0
 10
495.127781
 20
655.513613
 42
0.016993
  0
VERTEX
  8
0
 10
492.528177
 20
655.848144
 42
0.091561
  0
VERTEX
  8
0
 10
491.404801
 20
655.748335
 42
0.336828
  0
SEQEND
  0
POLYLINE
  8
0
 66
1
 70
1
  0
VERTEX
  8
0
 10
457.650758
 20
637.017010
 42
-0.016963
  0
VERTEX
  8
0
 10
476.090353
 20
634.720888
 42
-0.010777
  0
VERTEX
  8
0
 10
497.384751
 20
630.860018
 42
-0.010406
  0
VERTEX
  8
0
 10
519.604731
 20
625.850924
 42
-0.011423
  0
VERTEX
  8
0
 10
540.911555
 20
620.059895
 42
-0.010393
  0
VERTEX
  8
0
 10
556.799600
 20
614.987829
 42
-0.005611
  0
VERTEX
  8
0
 10
576.157352
 20
608.118099
 42
-0.005137
  0
VERTEX
  8
0
 10
594.371349
 20
601.209966
 42
-0.022218
  0
VERTEX
  8
0
 10
604.946455
 20
596.522675
 42
-0.005359
  0
VERTEX
  8
0
 10
616.099403
 20
590.824179
 42
-0.005978
  0
VERTEX
  8
0
 10
626.725770
 20
585.087295
 42
-0.005483
  0
VERTEX
  8
0
 10
635.661844
 20
579.995054
 42
-0.032180
  0
VERTEX
  8
0
 10
640.138170
 20
576.976718
 42
-0.025912
  0
VERTEX
  8
0
 10
648.544309
 20
569.760010
 42
-0.044568
  0
VERTEX
  8
0
 10
654.628810
 20
562.829620
 42
-0.047238
  0
VERTEX
  8
0
 10
659.154407
 20
555.228369
 42
-0.033621
  0
VERTEX
  8
0
 10
662.791090
 20
546.000000
 42
-0.006755
  0
VERTEX
  8
0
 10
664.752118
 20
539.538570
 42
-0.030177
  0
VERTEX
  8
0
 10
665.618990
 20
535.676849
 42
-0.076826
  0
VERTEX
  8
0
 10
665.633367
 20
533.660983
 42
-0.476627
  0
VERTEX
  8
0
 10
664.862430
 20
533.204055
 42
0.005764
  0
VERTEX
  8
0
 10
663.964353
 20
533.524768
 42
0.000425
  0
VERTEX
  8
0
 10
661.492932
 20
534.372997
 42
0.000591
  0
VERTEX
  8
0
 10
658.543111
 20
535.378725
 42
0.000448
  0
VERTEX
  8
0
 10
655.304997
 20
536.475238
 42
0.000000
  0
VERTEX
  8
0
 10
647.109994
 20
539.242100
 42
0.000000
  0
VERTEX
  8
0
 10
645.363972
 20
544.793160
 42
0.074616
  0
VERTEX
  8
0
 10
640.176531
 20
555.431365
 42
0.054955
  0
VERTEX
  8
0
 10
631.594081
 20
565.367003
 42
0.043736
  0
VERTEX
  8
0
 10
619.110536
 20
575.078111
 42
0.022523
  0
VERTEX
  8
0
 10
602.000000
 20
585.072997
 42
-0.006461
  0
VERTEX
  8
0
 10
600.167189
 20
586.066088
 42
-0.006682
  0
VERTEX
  8
0
 10
598.381250
 20
587.095404
 42
-0.006479
  0
VERTEX
  8
0
 10
596.858821
 20
588.027066
 42
-0.028380
  0
VERTEX
  8
0
 10
596.000000
 20
588.638720
 42
0.054500
  0
VERTEX
  8
0
 10
591.879246
 20
591.260961
 42
0.004824
  0
VERTEX
  8
0
 10
580.755014
 20
596.609606
 42
0.006952
  0
VERTEX
  8
0
 10
569.014891
 20
601.917711
 42
0.013615
  0
VERTEX
  8
0
 10
559.500000
 20
605.756705
 42
0.014784
  0
VERTEX
  8
0
 10
529.106579
 20
616.055367
 42
0.012880
  0
VERTEX
  8
0
 10
496.733974
 20
625.062856
 42
0.013297
  0
VERTEX
  8
0
 10
465.601057
 20
631.993048
 42
0.022340
  0
VERTEX
  8
0
 10
439.113082
 20
635.935755
 42
-0.004857
  0
VERTEX
  8
0
 10
435.490366
 20
636.346159
 42
-0.007360
  0
VERTEX
  8
0
 10
432.348914
 20
636.780015
 42
-0.003332
  0
VERTEX
  8
0
 10
429.694955
 20
637.204560
 42
-0.156282
  0
VERTEX
  8
0
 10
429.215148
 20
637.451519
 42
-0.669804
  0
VERTEX
  8
0
 10
429.455928
 20
638.029143
 42
-0.002697
  0
VERTEX
  8
0
 10
438.892841
 20
637.935859
 42
-0.007961
  0
VERTEX
  8
0
 10
448.745451
 20
637.628350
 42
-0.010710
  0
SEQEND
  0
POLYLINE
  8
0
 66
1
 70
1
  0
VERTEX
  8
0
 10
383.500000
 20
595.001277
 42
-0.023614
  0
VERTEX
  8
0
 10
406.900134
 20
591.793797
 42
-0.014367
  0
VERTEX
  8
0
 10
434.194418
 20
585.914137
 42
-0.010410
  0
VERTEX
  8
0
 10
469.246973
 20
576.524530
 42
-0.003901
  0
VERTEX
  8
0
 10
518.000000
 20
561.957437
 42
0.003992
  0
VERTEX
  8
0
 10
522.359428
 20
560.655728
 42
0.002276
  0
VERTEX
  8
0
 10
527.646875
 20
559.148844
 42
0.002273
  0
VERTEX
  8
0
 10
532.982586
 20
557.680564
 42
0.003765
  0
VERTEX
  8
0
 10
537.500000
 20
556.495950
 42
-0.005487
  0
VERTEX
  8
0
 10
542.085977
 20
555.276456
 42
-0.003056
  0
VERTEX
  8
0
 10
547.646875
 20
553.695505
 42
-0.003048
  0
VERTEX
  8
0
 10
553.254132
 20
552.027121
 42
-0.004934
  0
VERTEX
  8
0
 10
558.000000
 20
550.532165
 42
0.001558
  0
VERTEX
  8
0
 10
562.459871
 20
549.094134
 42
0.001324
  0
VERTEX
  8
0
 10
567.178125
 20
547.602760
 42
0.001334
  0
VERTEX
  8
0
 10
571.482042
 20
546.267473
 42
0.003760
  0
VERTEX
  8
0
 10
574.500000
 20
545.364754
 42
-0.062055
  0
VERTEX
  8
0
 10
577.673043
 20
543.996669
 42
-0.779950
  0
VERTEX
  8
0
 10
577.464968
 20
543.286508
 42
-0.029408
  0
VERTEX
  8
0
 10
570.831316
 20
543.937443
 42
-0.005480
  0
VERTEX
  8
0
 10
558.762083
 20
545.979057
 42
-0.001375
  0
VERTEX
  8
0
 10
540.705684
 20
549.288688
 42
-0.005744
  0
VERTEX
  8
0
 10
529.863730
 20
551.435948
 42
-0.005521
  0
VERTEX
  8
0
 10
518.878790
 20
553.869934
 42
-0.001203
  0
VERTEX
  8
0
 10
500.000000
 20
558.320156
 42
0.000995
  0
VERTEX
  8
0
 10
493.716756
 20
559.804039
 42
0.000755
  0
VERTEX
  8
0
 10
486.821875
 20
561.406911
 42
0.000763
  0
VERTEX
  8
0
 10
480.348642
 20
562.891053
 42
0.001784
  0
VERTEX
  8
0
 10
475.500000
 20
563.976746
 42
-0.000987
  0
VERTEX
  8
0
 10
471.258380
 20
564.919420
 42
-0.000838
  0
VERTEX
  8
0
 10
466.782481
 20
565.931326
 42
-0.000845
  0
VERTEX
  8
0
 10
462.709260
 20
566.866620
 42
-0.002381
  0
VERTEX
  8
0
 10
459.865892
 20
567.538854
 42
0.015069
  0
VERTEX
  8
0
 10
452.143546
 20
569.158874
 42
0.001554
  0
VERTEX
  8
0
 10
433.813401
 20
572.372233
 42
0.001485
  0
VERTEX
  8
0
 10
415.409730
 20
575.483312
 42
0.016382
  0
VERTEX
  8
0
 10
408.000000
 20
576.465109
 42
0.010677
  0
VERTEX
  8
0
 10
405.276613
 20
576.676923
 42
0.001420
  0
VERTEX
  8
0
 10
399.513774
 20
576.985104
 42
0.001644
  0
VERTEX
  8
0
 10
392.678333
 20
577.308653
 42
0.001380
  0
VERTEX
  8
0
 10
385.429870
 20
577.607828
 42
0.012979
  0
VERTEX
  8
0
 10
370.017972
 20
577.801012
 42
0.016838
  0
VERTEX
  8
0
 10
355.905484
 20
577.135883
 42
0.018728
  0
VERTEX
  8
0
 10
343.477220
 20
575.659714
 42
0.031396
  0
VERTEX
  8
0
 10
333.212691
 20
573.381113
 42
0.029581
  0
VERTEX
  8
0
 10
323.681272
 20
570.005619
 42
0.014715
  0
VERTEX
  8
0
 10
312.024875
 20
564.674775
 42
0.014423
  0
VERTEX
  8
0
 10
300.069753
 20
558.340865
 42
0.018614
  0
VERTEX
  8
0
 10
289.500000
 20
551.812754
 42
0.011861
  0
VERTEX
  8
0
 10
279.657065
 20
544.871328
 42
0.004075
  0
VERTEX
  8
0
 10
265.735832
 20
534.373945
 42
0.003687
  0
VERTEX
  8
0
 10
252.235410
 20
523.861216
 42
0.018808
  0
VERTEX
  8
0
 10
245.000000
 20
517.684820
 42
-0.003850
  0
VERTEX
  8
0
 10
243.191974
 20
516.045457
 42
-0.001253
  0
VERTEX
  8
0
 10
240.497188
 20
513.651710
 42
-0.001249
  0
VERTEX
  8
0
 10
237.489842
 20
511.007126
 42
-0.001407
  0
VERTEX
  8
0
 10
234.586172
 20
508.480934
 42
0.010366
  0
VERTEX
  8
0
 10
218.280250
 20
493.773332
 42
0.008204
  0
VERTEX
  8
0
 10
201.251801
 20
477.226809
 42
0.008078
  0
VERTEX
  8
0
 10
184.456271
 20
459.808118
 42
0.009010
  0
VERTEX
  8
0
 10
168.844719
 20
442.468742
 42
-0.001112
  0
VERTEX
  8
0
 10
165.309192
 20
438.414943
 42
-0.001200
  0
VERTEX
  8
0
 10
161.843284
 20
434.477869
 42
-0.001131
  0
VERTEX
  8
0
 10
158.853487
 20
431.113381
 42
-0.005761
  0
VERTEX
  8
0
 10
157.164270
 20
429.264431
 42
0.010025
  0
VERTEX
  8
0
 10
155.693432
 20
427.626678
 42
0.003809
  0
VERTEX
  8
0
 10
153.705504
 20
425.286008
 42
0.003771
  0
VERTEX
  8
0
 10
151.582861
 20
422.708523
 42
0.004605
  0
VERTEX
  8
0
 10
149.637854
 20
420.264431
 42
-0.002512
  0
VERTEX
  8
0
 10
147.744488
 20
417.864679
 42
-0.002324
  0
VERTEX
  8
0
 10
145.777847
 20
415.421036
 42
-0.002318
  0
VERTEX
  8
0
 10
144.006886
 20
413.261892
 42
-0.007775
  0
VERTEX
  8
0
 10
142.818303
 20
411.871011
 42
0.002812
  0
VERTEX
  8
0
 10
141.529918
 20
410.393295
 42
0.000586
  0
VERTEX
  8
0
 10
139.286773
 20
407.784948
 42
0.000615
  0
VERTEX
  8
0
 10
136.690360
 20
404.751113
 42
0.000581
  0
VERTEX
  8
0
 10
134.051562
 20
401.652782
 42
-0.005077
  0
VERTEX
  8
0
 10
131.551378
 20
398.770123
 42
-0.008507
  0
VERTEX
  8
0
 10
129.384968
 20
396.405266
 42
-0.002894
  0
VERTEX
  8
0
 10
127.508394
 20
394.448310
 42
-0.418666
  0
VERTEX
  8
0
 10
127.220541
 20
394.446125
 42
-0.305829
  0
VERTEX
  8
0
 10
127.097006
 20
395.082272
 42
-0.020899
  0
VERTEX
  8
0
 10
127.926886
 20
396.828800
 42
-0.028078
  0
VERTEX
  8
0
 10
129.039137
 20
398.677969
 42
-0.039562
  0
VERTEX
  8
0
 10
130.243452
 20
400.177224
 42
0.031631
  0
VERTEX
  8
0
 10
130.980453
 20
401.065522
 42
0.003126
  0
VERTEX
  8
0
 10
132.599639
 20
403.318850
 42
0.003935
  0
VERTEX
  8
0
 10
134.493406
 20
406.034419
 42
0.003112
  0
VERTEX
  8
0
 10
136.500000
 20
409.000000
 42
-0.003112
  0
VERTEX
  8
0
 10
138.506594
 20
411.965581
 42
-0.003935
  0
VERTEX
  8
0
 10
140.400361
 20
414.681150
 42
-0.003126
  0
VERTEX
  8
0
 10
142.019547
 20
416.934478
 42
-0.031631
  0
VERTEX
  8
0
 10
142.756548
 20
417.822776
 42
0.025822
  0
VERTEX
  8
0
 10
143.320419
 20
418.486570
 42
0.012057
  0
VERTEX
  8
0
 10
143.984045
 20
419.399740
 42
0.011910
  0
VERTEX
  8
0
 10
144.635737
 20
420.393331
 42
0.016325
  0
VERTEX
  8
0
 10
145.170747
 20
421.319043
 42
-0.029414
  0
VERTEX
  8
0
 10
147.002259
 20
424.304917
 42
-0.003423
  0
VERTEX
  8
0
 10
151.531444
 20
430.704904
 42
-0.003682
  0
VERTEX
  8
0
 10
157.488828
 20
438.874319
 42
-0.001982
  0
VERTEX
  8
0
 10
164.946107
 20
448.860920
 42
0.000836
  0
VERTEX
  8
0
 10
168.331557
 20
453.373015
 42
0.001076
  0
VERTEX
  8
0
 10
171.427919
 20
457.532854
 42
0.000820
  0
VERTEX
  8
0
 10
174.010374
 20
461.029876
 42
0.009372
  0
VERTEX
  8
0
 10
175.000000
 20
462.428766
 42
-0.013903
  0
VERTEX
  8
0
 10
177.153276
 20
465.414784
 42
-0.004255
  0
VERTEX
  8
0
 10
180.569628
 20
469.806964
 42
-0.003650
  0
VERTEX
  8
0
 10
184.993119
 20
475.312110
 42
-0.002017
  0
VERTEX
  8
0
 10
190.472714
 20
481.975490
 42
0.000014
  0
VERTEX
  8
0
 10
193.309813
 20
485.397457
 42
0.000016
  0
VERTEX
  8
0
 10
196.023235
 20
488.670638
 42
0.000014
  0
VERTEX
  8
0
 10
198.325895
 20
491.448654
 42
0.000088
  0
VERTEX
  8
0
 10
199.500000
 20
492.865729
 42
-0.018652
  0
VERTEX
  8
0
 10
212.369955
 20
507.275085
 42
-0.006588
  0
VERTEX
  8
0
 10
231.831644
 20
526.967584
 42
-0.006235
  0
VERTEX
  8
0
 10
251.469336
 20
545.844435
 42
-0.025503
  0
VERTEX
  8
0
 10
264.089670
 20
556.521535
 42
0.001898
  0
VERTEX
  8
0
 10
266.582134
 20
558.435984
 42
0.002763
  0
VERTEX
  8
0
 10
268.763841
 20
560.144312
 42
0.001372
  0
VERTEX
  8
0
 10
270.603843
 20
561.609785
 42
0.047660
  0
VERTEX
  8
0
 10
271.000000
 20
561.994362
 42
-0.059515
  0
VERTEX
  8
0
 10
272.972361
 20
563.820512
 42
-0.001810
  0
VERTEX
  8
0
 10
282.027938
 20
570.345923
 42
-0.003175
  0
VERTEX
  8
0
 10
290.776458
 20
576.518509
 42
-0.024855
  0
VERTEX
  8
0
 10
295.000000
 20
579.157029
 42
0.001434
  0
VERTEX
  8
0
 10
297.013683
 20
580.287537
 42
0.000910
  0
VERTEX
  8
0
 10
299.353125
 20
581.615394
 42
0.000914
  0
VERTEX
  8
0
 10
301.644848
 20
582.927245
 42
0.001694
  0
VERTEX
  8
0
 10
303.500000
 20
584.002074
 42
-0.010255
  0
VERTEX
  8
0
 10
308.420508
 20
586.741459
 42
-0.020249
  0
VERTEX
  8
0
 10
312.452643
 20
588.674264
 42
-0.022001
  0
VERTEX
  8
0
 10
316.401224
 20
590.171820
 42
-0.014817
  0
VERTEX
  8
0
 10
321.023606
 20
591.545551
 42
-0.032596
  0
VERTEX
  8
0
 10
333.868224
 20
594.070187
 42
-0.018415
  0
VERTEX
  8
0
 10
349.677562
 20
595.530085
 42
-0.017570
  0
VERTEX
  8
0
 10
366.743964
 20
595.873519
 42
-0.018499
  0
SEQEND
  0
POLYLINE
  8
0
 66
1
 70
1
  0
VERTEX
  8
0
 10
502.838639
 20
533.103335
 42
-0.022829
  0
VERTEX
  8
0
 10
510.126236
 20
530.592213
 42
-0.031691
  0
VERTEX
  8
0
 10
516.371030
 20
527.645849
 42
-0.026118
  0
VERTEX
  8
0
 10
523.024714
 20
523.507370
 42
-0.010119
  0
VERTEX
  8
0
 10
531.804995
 20
517.120480
 42
0.002261
  0
VERTEX
  8
0
 10
536.517129
 20
513.578252
 42
0.002232
  0
VERTEX
  8
0
 10
541.281289
 20
510.063465
 42
0.002191
  0
VERTEX
  8
0
 10
545.480557
 20
507.022419
 42
0.008589
  0
VERTEX
  8
0
 10
548.111967
 20
505.201955
 42
-0.047105
  0
VERTEX
  8
0
 10
551.980580
 20
502.059586
 42
-0.605295
  0
VERTEX
  8
0
 10
551.559951
 20
500.670997
 42
-0.084540
  0
VERTEX
  8
0
 10
547.310630
 20
500.588649
 42
-0.005048
  0
VERTEX
  8
0
 10
534.604189
 20
502.631364
 42
-0.029399
  0
VERTEX
  8
0
 10
523.766904
 20
505.149130
 42
-0.015921
  0
VERTEX
  8
0
 10
510.765212
 20
509.441818
 42
-0.014433
  0
VERTEX
  8
0
 10
496.370980
 20
515.184372
 42
-0.011604
  0
VERTEX
  8
0
 10
481.230558
 20
522.158717
 42
0.004486
  0
VERTEX
  8
0
 10
474.156470
 20
525.540222
 42
0.007142
  0
VERTEX
  8
0
 10
468.039725
 20
528.291244
 42
0.002390
  0
VERTEX
  8
0
 10
462.754840
 20
530.548022
 42
0.242698
  0
VERTEX
  8
0
 10
461.980558
 20
530.487984
 42
0.194050
  0
VERTEX
  8
0
 10
461.228772
 20
529.465263
 42
0.117012
  0
VERTEX
  8
0
 10
461.201933
 20
527.939248
 42
0.052017
  0
VERTEX
  8
0
 10
462.000271
 20
525.524693
 42
0.010038
  0
VERTEX
  8
0
 10
463.977169
 20
521.361603
 42
0.037431
  0
VERTEX
  8
0
 10
467.211560
 20
515.944213
 42
0.019430
  0
VERTEX
  8
0
 10
471.993464
 20
509.678952
 42
0.019320
  0
VERTEX
  8
0
 10
477.142097
 20
503.918948
 42
0.046118
  0
VERTEX
  8
0
 10
481.486256
 20
500.180642
 42
-0.098602
  0
VERTEX
  8
0
 10
484.454233
 20
497.031673
 42
-0.526459
  0
VERTEX
  8
0
 10
483.674106
 20
495.236415
 42
-0.124404
  0
VERTEX
  8
0
 10
478.943189
 20
495.500914
 42
-0.031497
  0
VERTEX
  8
0
 10
471.697491
 20
498.280955
 42
-0.054319
  0
VERTEX
  8
0
 10
464.706417
 20
502.451357
 42
-0.062658
  0
VERTEX
  8
0
 10
459.145572
 20
507.860272
 42
-0.068011
  0
VERTEX
  8
0
 10
455.452970
 20
514.044523
 42
-0.086767
  0
VERTEX
  8
0
 10
453.945757
 20
520.500000
 42
-0.013309
  0
VERTEX
  8
0
 10
453.787732
 20
525.827909
 42
-0.049900
  0
VERTEX
  8
0
 10
454.110415
 20
529.155006
 42
-0.076830
  0
VERTEX
  8
0
 10
454.985377
 20
531.553750
 42
-0.070687
  0
VERTEX
  8
0
 10
456.562942
 20
533.653852
 42
0.000000
  0
VERTEX
  8
0
 10
459.125885
 20
536.216794
 42
0.000000
  0
VERTEX
  8
0
 10
477.312942
 20
535.739803
 42
-0.004435
  0
VERTEX
  8
0
 10
487.006413
 20
535.399511
 42
-0.014741
  0
VERTEX
  8
0
 10
493.364969
 20
534.931689
 42
-0.021449
  0
VERTEX
  8
0
 10
498.245082
 20
534.215018
 42
-0.024375
  0
SEQEND
  0
POLYLINE
  8
0
 66
1
 70
1
  0
VERTEX
  8
0
 10
686.500000
 20
508.095569
 42
0.007443
  0
VERTEX
  8
0
 10
699.344181
 20
502.040241
 42
0.010511
  0
VERTEX
  8
0
 10
710.972403
 20
497.060233
 42
0.010018
  0
VERTEX
  8
0
 10
723.217414
 20
492.401065
 42
0.005926
  0
VERTEX
  8
0
 10
738.000000
 20
487.309680
 42
-0.013168
  0
VERTEX
  8
0
 10
741.199011
 20
486.155799
 42
-0.084503
  0
VERTEX
  8
0
 10
742.668732
 20
485.272580
 42
-0.136512
  0
VERTEX
  8
0
 10
743.423414
 20
484.144787
 42
-0.055446
  0
VERTEX
  8
0
 10
743.807638
 20
482.320704
 42
-0.055036
  0
VERTEX
  8
0
 10
743.784472
 20
480.557202
 42
-0.088136
  0
VERTEX
  8
0
 10
743.342290
 20
479.122229
 42
-0.067753
  0
VERTEX
  8
0
 10
742.335153
 20
477.681329
 42
-0.021430
  0
VERTEX
  8
0
 10
740.470163
 20
475.826700
 42
-0.040875
  0
VERTEX
  8
0
 10
735.206446
 20
471.757892
 42
-0.115444
  0
VERTEX
  8
0
 10
730.863335
 20
470.189840
 42
-0.093145
  0
VERTEX
  8
0
 10
725.725853
 20
470.545638
 42
-0.021094
  0
VERTEX
  8
0
 10
717.329678
 20
473.116032
 42
-0.019765
  0
VERTEX
  8
0
 10
706.060856
 20
477.601065
 42
-0.020849
  0
VERTEX
  8
0
 10
695.385060
 20
482.890382
 42
-0.021504
  0
VERTEX
  8
0
 10
685.513897
 20
488.870619
 42
-0.024699
  0
VERTEX
  8
0
 10
676.656201
 20
495.425517
 42
0.028232
  0
VERTEX
  8
0
 10
673.195634
 20
497.948793
 42
0.105880
  0
VERTEX
  8
0
 10
670.695776
 20
498.897176
 42
0.061191
  0
VERTEX
  8
0
 10
667.388419
 20
498.994433
 42
0.005318
  0
VERTEX
  8
0
 10
659.000000
 20
498.123386
 42
-0.022462
  0
VERTEX
  8
0
 10
645.308749
 20
497.174584
 42
-0.008030
  0
VERTEX
  8
0
 10
625.727341
 20
497.013739
 42
-0.007754
  0
VERTEX
  8
0
 10
606.407088
 20
497.464999
 42
-0.028176
  0
VERTEX
  8
0
 10
594.186519
 20
498.631893
 42
-0.005795
  0
VERTEX
  8
0
 10
585.904666
 20
499.994984
 42
-0.052521
  0
VERTEX
  8
0
 10
582.386254
 20
501.005425
 42
-0.727841
  0
VERTEX
  8
0
 10
582.437399
 20
501.713115
 42
-0.049691
  0
VERTEX
  8
0
 10
585.500000
 20
502.147873
 42
-0.002415
  0
VERTEX
  8
0
 10
587.560937
 20
502.223923
 42
-0.002428
  0
VERTEX
  8
0
 10
589.618750
 20
502.279907
 42
-0.002369
  0
VERTEX
  8
0
 10
591.413198
 20
502.311503
 42
-0.009749
  0
VERTEX
  8
0
 10
592.500000
 20
502.304299
 42
0.029449
  0
VERTEX
  8
0
 10
596.996159
 20
502.451626
 42
0.000852
  0
VERTEX
  8
0
 10
616.020414
 20
504.232542
 42
0.001482
  0
VERTEX
  8
0
 10
634.252469
 20
506.025181
 42
0.012901
  0
VERTEX
  8
0
 10
642.329092
 20
507.054596
 42
0.017416
  0
VERTEX
  8
0
 10
647.414241
 20
508.018869
 42
0.014316
  0
VERTEX
  8
0
 10
652.767285
 20
509.390617
 42
0.013262
  0
VERTEX
  8
0
 10
658.442840
 20
511.183714
 42
0.010399
  0
VERTEX
  8
0
 10
664.500000
 20
513.417635
 42
-0.068978
  0
VERTEX
  8
0
 10
668.491919
 20
514.379265
 42
-0.084199
  0
VERTEX
  8
0
 10
672.319330
 20
514.113409
 42
-0.046408
  0
VERTEX
  8
0
 10
677.380668
 20
512.379200
 42
-0.008145
  0
SEQEND
  0
POLYLINE
  8
0
 66
1
 70
1
  0
VERTEX
  8
0
 10
647.609591
 20
474.000000
 42
-0.007205
  0
VERTEX
  8
0
 10
647.499818
 20
469.556991
 42
-0.020834
  0
VERTEX
  8
0
 10
647.251534
 20
466.489898
 42
-0.022665
  0
VERTEX
  8
0
 10
646.901209
 20
464.421254
 42
-0.353095
  0
VERTEX
  8
0
 10
646.379062
 20
464.000000
 42
-0.059358
  0
VERTEX
  8
0
 10
645.714239
 20
464.079204
 42
-0.008289
  0
VERTEX
  8
0
 10
644.370756
 20
464.427595
 42
-0.009381
  0
VERTEX
  8
0
 10
642.788010
 20
464.898300
 42
-0.007839
  0
VERTEX
  8
0
 10
641.125727
 20
465.455641
 42
0.011378
  0
VERTEX
  8
0
 10
639.543246
 20
465.973797
 42
0.020053
  0
VERTEX
  8
0
 10
638.211932
 20
466.318810
 42
0.016272
  0
VERTEX
  8
0
 10
637.182388
 20
466.507146
 42
0.458375
  0
VERTEX
  8
0
 10
637.000000
 20
466.349997
 42
0.189070
  0
VERTEX
  8
0
 10
637.606043
 20
464.804599
 42
0.011410
  0
VERTEX
  8
0
 10
641.141741
 20
461.160329
 42
0.015195
  0
VERTEX
  8
0
 10
645.821126
 20
456.824469
 42
0.009121
  0
VERTEX
  8
0
 10
651.621511
 20
451.951910
 42
0.012514
  0
VERTEX
  8
0
 10
656.677060
 20
448.065280
 42
0.020999
  0
VERTEX
  8
0
 10
661.132770
 20
445.092277
 42
0.021774
  0
VERTEX
  8
0
 10
665.705234
 20
442.577307
 42
0.014808
  0
VERTEX
  8
0
 10
671.104419
 20
440.103038
 42
0.017949
  0
VERTEX
  8
0
 10
681.250836
 20
436.235174
 42
0.008455
  0
VERTEX
  8
0
 10
694.603951
 20
431.937263
 42
0.008410
  0
VERTEX
  8
0
 10
708.622606
 20
427.941557
 42
0.012597
  0
VERTEX
  8
0
 10
721.000000
 20
424.969573
 42
-0.001243
  0
VERTEX
  8
0
 10
725.749403
 20
423.942637
 42
-0.000751
  0
VERTEX
  8
0
 10
731.370704
 20
422.703685
 42
-0.000752
  0
VERTEX
  8
0
 10
736.949991
 20
421.456386
 42
-0.001322
  0
VERTEX
  8
0
 10
741.559844
 20
420.405714
 42
0.004914
  0
VERTEX
  8
0
 10
746.267275
 20
419.368323
 42
0.002540
  0
VERTEX
  8
0
 10
752.172030
 20
418.159076
 42
0.002524
  0
VERTEX
  8
0
 10
758.255704
 20
416.977255
 42
0.003826
  0
VERTEX
  8
0
 10
763.559844
 20
416.016603
 42
-0.000421
  0
VERTEX
  8
0
 10
768.314987
 20
415.188782
 42
-0.000527
  0
VERTEX
  8
0
 10
772.726954
 20
414.412082
 42
-0.000424
  0
VERTEX
  8
0
 10
776.429112
 20
413.753083
 42
-0.004086
  0
VERTEX
  8
0
 10
778.000000
 20
413.458816
 42
0.003717
  0
VERTEX
  8
0
 10
779.696747
 20
413.139675
 42
0.347166
  0
VERTEX
  8
0
 10
779.904063
 20
413.250205
 42
0.332759
  0
VERTEX
  8
0
 10
779.849400
 20
413.483896
 42
0.003572
  0
VERTEX
  8
0
 10
778.500000
 20
414.600803
 42
0.042583
  0
VERTEX
  8
0
 10
777.229677
 20
415.468295
 42
0.005981
  0
VERTEX
  8
0
 10
774.443750
 20
416.997767
 42
0.006793
  0
VERTEX
  8
0
 10
771.092460
 20
418.727719
 42
0.005727
  0
VERTEX
  8
0
 10
767.500000
 20
420.469668
 42
-0.001396
  0
VERTEX
  8
0
 10
760.802651
 20
423.645785
 42
-0.003258
  0
VERTEX
  8
0
 10
755.812429
 20
426.069471
 42
-0.001730
  0
VERTEX
  8
0
 10
749.316065
 20
429.305164
 42
-0.000165
  0
VERTEX
  8
0
 10
733.500000
 20
437.257745
 42
-0.002025
  0
VERTEX
  8
0
 10
726.855205
 20
440.635407
 42
-0.002853
  0
VERTEX
  8
0
 10
720.960221
 20
443.704655
 42
-0.001665
  0
VERTEX
  8
0
 10
716.015076
 20
446.336435
 42
-0.039243
  0
VERTEX
  8
0
 10
714.683732
 20
447.191375
 42
-0.026726
  0
VERTEX
  8
0
 10
713.630989
 20
448.083016
 42
-0.229325
  0
VERTEX
  8
0
 10
713.417541
 20
448.643669
 42
-0.174187
  0
VERTEX
  8
0
 10
713.698318
 20
449.252677
 42
-0.014582
  0
VERTEX
  8
0
 10
714.970239
 20
450.473067
 42
-0.070322
  0
VERTEX
  8
0
 10
716.504506
 20
451.511830
 42
-0.120920
  0
VERTEX
  8
0
 10
718.004632
 20
451.837955
 42
-0.048226
  0
VERTEX
  8
0
 10
720.309395
 20
451.553073
 42
-0.003864
  0
VERTEX
  8
0
 10
726.286507
 20
450.171926
 42
0.009761
  0
VERTEX
  8
0
 10
734.392175
 20
448.399361
 42
0.067308
  0
VERTEX
  8
0
 10
738.449410
 20
448.150103
 42
0.119309
  0
VERTEX
  8
0
 10
741.365840
 20
449.086087
 42
0.059408
  0
VERTEX
  8
0
 10
744.433333
 20
451.500000
 42
-0.024235
  0
VERTEX
  8
0
 10
746.498060
 20
453.373721
 42
-0.070707
  0
VERTEX
  8
0
 10
748.137452
 20
454.372763
 42
-0.073702
  0
VERTEX
  8
0
 10
749.951102
 20
454.853260
 42
-0.027969
  0
VERTEX
  8
0
 10
752.572322
 20
455.000000
 42
-0.063802
  0
VERTEX
  8
0
 10
762.617838
 20
453.712903
 42
-0.023338
  0
VERTEX
  8
0
 10
776.324048
 20
449.450064
 42
-0.021604
  0
VERTEX
  8
0
 10
791.762711
 20
443.078659
 42
-0.018277
  0
VERTEX
  8
0
 10
807.500000
 20
435.061893
 42
-0.024890
  0
VERTEX
  8
0
 10
819.316262
 20
427.695295
 42
-0.007965
  0
VERTEX
  8
0
 10
836.126871
 20
415.613439
 42
-0.003213
  0
VERTEX
  8
0
 10
853.280627
 20
402.693773
 42
-0.151356
  0
VERTEX
  8
0
 10
855.777175
 20
399.184988
 42
-0.193944
  0
VERTEX
  8
0
 10
855.740105
 20
398.616835
 42
-0.239191
  0
VERTEX
  8
0
 10
855.323678
 20
398.298322
 42
-0.078987
  0
VERTEX
  8
0
 10
854.336625
 20
398.272907
 42
-0.013386
  0
VERTEX
  8
0
 10
852.470032
 20
398.571600
 42
0.038260
  0
VERTEX
  8
0
 10
846.923150
 20
399.178403
 42
0.007223
  0
VERTEX
  8
0
 10
836.728660
 20
399.362262
 42
0.007381
  0
VERTEX
  8
0
 10
826.521354
 20
399.248209
 42
0.035652
  0
VERTEX
  8
0
 10
820.750000
 20
398.685409
 42
0.025082
  0
VERTEX
  8
0
 10
817.403523
 20
397.941864
 42
0.216901
  0
VERTEX
  8
0
 10
816.259887
 20
396.986437
 42
0.304149
  0
VERTEX
  8
0
 10
816.439282
 20
395.739427
 42
0.042747
  0
VERTEX
  8
0
 10
818.437972
 20
393.870131
 42
-0.049771
  0
VERTEX
  8
0
 10
821.777204
 20
390.658147
 42
-0.009192
  0
VERTEX
  8
0
 10
827.197492
 20
384.050167
 42
-0.009801
  0
VERTEX
  8
0
 10
832.392145
 20
377.202611
 42
-0.039432
  0
VERTEX
  8
0
 10
835.137372
 20
372.730729
 42
-0.072815
  0
VERTEX
  8
0
 10
836.531984
 20
368.610442
 42
-0.072780
  0
VERTEX
  8
0
 10
836.687237
 20
364.262596
 42
-0.059740
  0
VERTEX
  8
0
 10
835.545881
 20
359.364802
 42
-0.030360
  0
VERTEX
  8
0
 10
833.026792
 20
353.552785
 42
-0.019936
  0
VERTEX
  8
0
 10
829.780006
 20
347.742245
 42
-0.040216
  0
VERTEX
  8
0
 10
826.692023
 20
343.505323
 42
-0.053167
  0
VERTEX
  8
0
 10
823.845958
 20
340.830666
 42
-0.163464
  0
VERTEX
  8
0
 10
821.373036
 20
340.000000
 42
-0.047153
  0
VERTEX
  8
0
 10
819.914559
 20
340.137849
 42
-0.006965
  0
VERTEX
  8
0
 10
817.011289
 20
340.733632
 42
-0.007801
  0
VERTEX
  8
0
 10
813.591782
 20
341.541262
 42
-0.006638
  0
VERTEX
  8
0
 10
810.008994
 20
342.497471
 42
0.010640
  0
VERTEX
  8
0
 10
790.073116
 20
347.647596
 42
0.011826
  0
VERTEX
  8
0
 10
770.624197
 20
351.749868
 42
0.011084
  0
VERTEX
  8
0
 10
753.934808
 20
354.478490
 42
0.061085
  0
VERTEX
  8
0
 10
744.840128
 20
354.641079
 42
0.110172
  0
VERTEX
  8
0
 10
727.501697
 20
348.825907
 42
0.041475
  0
VERTEX
  8
0
 10
706.636725
 20
333.741531
 42
0.039199
  0
VERTEX
  8
0
 10
686.212840
 20
313.242894
 42
0.042216
  0
VERTEX
  8
0
 10
669.793280
 20
290.283833
 42
0.040696
  0
VERTEX
  8
0
 10
663.052025
 20
276.508328
 42
0.050215
  0
VERTEX
  8
0
 10
659.193425
 20
262.748861
 42
0.048018
  0
VERTEX
  8
0
 10
658.054196
 20
248.002322
 42
0.032790
  0
VERTEX
  8
0
 10
659.472314
 20
231.243418
 42
0.033436
  0
VERTEX
  8
0
 10
662.512365
 20
217.442831
 42
0.025744
  0
VERTEX
  8
0
 10
667.585917
 20
202.875535
 42
0.026314
  0
VERTEX
  8
0
 10
673.744902
 20
189.767090
 42
0.057547
  0
VERTEX
  8
0
 10
680.063022
 20
180.665743
 42
0.049040
  0
VERTEX
  8
0
 10
684.578825
 20
176.450336
 42
0.011628
  0
VERTEX
  8
0
 10
692.912177
 20
170.377545
 42
0.011581
  0
VERTEX
  8
0
 10
701.513685
 20
164.701006
 42
0.049856
  0
VERTEX
  8
0
 10
707.000000
 20
161.979093
 42
-0.012025
  0
VERTEX
  8
0
 10
708.780264
 20
161.257768
 42
-0.003887
  0
VERTEX
  8
0
 10
711.381250
 20
160.106256
 42
-0.003873
  0
VERTEX
  8
0
 10
714.254752
 20
158.780388
 42
-0.004339
  0
VERTEX
  8
0
 10
717.000000
 20
157.458590
 42
0.011993
  0
VERTEX
  8
0
 10
719.911120
 20
156.111417
 42
0.008079
  0
VERTEX
  8
0
 10
723.293609
 20
154.708047
 42
0.008141
  0
VERTEX
  8
0
 10
726.611828
 20
153.455877
 42
0.015973
  0
VERTEX
  8
0
 10
729.297391
 20
152.587865
 42
-0.017892
  0
VERTEX
  8
0
 10
731.555739
 20
151.848354
 42
-0.023799
  0
VERTEX
  8
0
 10
733.545252
 20
151.007625
 42
-0.022277
  0
VERTEX
  8
0
 10
735.091362
 20
150.179063
 42
-0.168541
  0
VERTEX
  8
0
 10
735.617176
 20
149.555240
 42
-0.249530
  0
VERTEX
  8
0
 10
735.070111
 20
145.117775
 42
-0.023531
  0
VERTEX
  8
0
 10
728.127326
 20
136.149695
 42
-0.029571
  0
VERTEX
  8
0
 10
719.415465
 20
127.074369
 42
-0.043810
  0
VERTEX
  8
0
 10
710.703469
 20
120.324943
 42
-0.016594
  0
VERTEX
  8
0
 10
700.456211
 20
114.204829
 42
-0.016114
  0
VERTEX
  8
0
 10
689.726280
 20
108.714087
 42
-0.015957
  0
VERTEX
  8
0
 10
678.558654
 20
103.875615
 42
-0.015511
  0
VERTEX
  8
0
 10
667.000000
 20
99.709809
 42
-0.018443
  0
VERTEX
  8
0
 10
657.969150
 20
97.132351
 42
-0.005283
  0
VERTEX
  8
0
 10
643.798233
 20
93.805845
 42
-0.001281
  0
VERTEX
  8
0
 10
628.484961
 20
90.422661
 42
-0.187914
  0
VERTEX
  8
0
 10
626.717376
 20
90.701786
 42
-0.304229
  0
VERTEX
  8
0
 10
626.535571
 20
91.076222
 42
-0.042991
  0
VERTEX
  8
0
 10
626.736463
 20
91.955669
 42
-0.037059
  0
VERTEX
  8
0
 10
627.191894
 20
93.080899
 42
-0.022982
  0
VERTEX
  8
0
 10
627.881356
 20
94.329180
 42
0.018514
  0
VERTEX
  8
0
 10
631.184362
 20
100.185106
 42
0.014520
  0
VERTEX
  8
0
 10
634.339854
 20
106.759359
 42
0.014809
  0
VERTEX
  8
0
 10
636.937062
 20
113.098519
 42
0.031941
  0
VERTEX
  8
0
 10
638.471591
 20
118.141824
 42
0.034414
  0
VERTEX
  8
0
 10
639.580557
 20
124.897247
 42
0.023824
  0
VERTEX
  8
0
 10
639.938831
 20
132.634992
 42
0.023994
  0
VERTEX
  8
0
 10
639.577576
 20
139.949490
 42
0.057832
  0
VERTEX
  8
0
 10
638.434475
 20
145.238284
 42
0.063018
  0
VERTEX
  8
0
 10
634.689050
 20
152.908194
 42
0.044950
  0
VERTEX
  8
0
 10
628.747649
 20
160.407946
 42
0.038572
  0
VERTEX
  8
0
 10
620.585482
 20
167.769600
 42
0.024993
  0
VERTEX
  8
0
 10
610.135567
 20
175.023528
 42
-0.019466
  0
VERTEX
  8
0
 10
608.484508
 20
176.142803
 42
-0.041462
  0
VERTEX
  8
0
 10
607.323275
 20
177.156265
 42
-0.066483
  0
VERTEX
  8
0
 10
606.732312
 20
177.953982
 42
-0.400007
  0
VERTEX
  8
0
 10
606.851264
 20
178.408076
 42
-0.141860
  0
VERTEX
  8
0
 10
607.715896
 20
178.648985
 42
-0.002737
  0
VERTEX
  8
0
 10
612.397619
 20
178.576044
 42
-0.006376
  0
VERTEX
  8
0
 10
617.896786
 20
178.390085
 42
-0.004202
  0
VERTEX
  8
0
 10
624.215697
 20
178.042463
 42
0.000988
  0
VERTEX
  8
0
 10
640.122461
 20
177.064817
 42
0.037215
  0
VERTEX
  8
0
 10
643.722580
 20
177.118783
 42
0.283827
  0
VERTEX
  8
0
 10
644.936267
 20
178.027136
 42
0.165100
  0
VERTEX
  8
0
 10
645.026502
 20
179.907594
 42
0.083271
  0
VERTEX
  8
0
 10
641.102043
 20
188.126936
 42
0.035072
  0
VERTEX
  8
0
 10
633.363168
 20
197.663086
 42
0.034598
  0
VERTEX
  8
0
 10
623.858000
 20
206.514186
 42
0.050619
  0
VERTEX
  8
0
 10
614.298528
 20
212.769899
 42
0.015064
  0
VERTEX
  8
0
 10
606.809991
 20
216.370524
 42
0.009658
  0
VERTEX
  8
0
 10
597.919689
 20
220.116128
 42
0.009695
  0
VERTEX
  8
0
 10
589.172513
 20
223.408982
 42
0.020209
  0
VERTEX
  8
0
 10
582.217034
 20
225.562383
 42
0.013808
  0
VERTEX
  8
0
 10
572.376388
 20
227.889490
 42
0.004134
  0
VERTEX
  8
0
 10
557.260569
 20
230.895942
 42
0.004145
  0
VERTEX
  8
0
 10
542.084299
 20
233.654046
 42
0.013595
  0
VERTEX
  8
0
 10
532.000000
 20
235.119384
 42
0.017070
  0
VERTEX
  8
0
 10
526.154282
 20
235.605539
 42
0.003860
  0
VERTEX
  8
0
 10
516.198136
 20
236.015119
 42
0.003975
  0
VERTEX
  8
0
 10
504.642799
 20
236.309210
 42
0.003740
  0
VERTEX
  8
0
 10
492.847443
 20
236.427352
 42
-0.002361
  0
VERTEX
  8
0
 10
481.890751
 20
236.506876
 42
-0.004031
  0
VERTEX
  8
0
 10
472.741783
 20
236.690269
 42
-0.000766
  0
VERTEX
  8
0
 10
464.796786
 20
236.925807
 42
-0.576298
  0
VERTEX
  8
0
 10
464.638149
 20
237.220372
 42
-0.182231
  0
VERTEX
  8
0
 10
466.624366
 20
238.757683
 42
-0.001712
  0
VERTEX
  8
0
 10
484.580016
 20
244.208846
 42
-0.006249
  0
VERTEX
  8
0
 10
501.679684
 20
249.104184
 42
-0.017161
  0
VERTEX
  8
0
 10
513.894757
 20
251.990152
 42
-0.008079
  0
VERTEX
  8
0
 10
534.539855
 20
255.779601
 42
-0.005410
  0
VERTEX
  8
0
 10
558.265130
 20
259.475900
 42
-0.005304
  0
VERTEX
  8
0
 10
580.603670
 20
262.467440
 42
-0.015729
  0
VERTEX
  8
0
 10
596.000000
 20
263.873373
 42
0.005249
  0
VERTEX
  8
0
 10
601.516701
 20
264.260759
 42
0.030487
  0
VERTEX
  8
0
 10
604.402979
 20
264.672086
 42
0.068666
  0
VERTEX
  8
0
 10
605.926223
 20
265.210281
 42
0.306314
  0
VERTEX
  8
0
 10
606.357207
 20
266.000000
 42
0.019389
  0
VERTEX
  8
0
 10
605.640897
 20
271.326337
 42
0.001743
  0
VERTEX
  8
0
 10
603.283121
 20
284.588654
 42
0.001256
  0
VERTEX
  8
0
 10
600.782172
 20
298.182727
 42
0.031610
  0
VERTEX
  8
0
 10
599.854403
 20
301.852126
 42
0.064587
  0
VERTEX
  8
0
 10
598.962654
 20
303.747090
 42
0.079587
  0
VERTEX
  8
0
 10
597.665056
 20
305.203854
 42
0.049923
  0
VERTEX
  8
0
 10
595.522286
 20
306.621609
 42
0.011500
  0
VERTEX
  8
0
 10
591.638743
 20
308.554209
 42
0.024966
  0
VERTEX
  8
0
 10
585.126943
 20
311.222057
 42
0.008812
  0
VERTEX
  8
0
 10
575.554618
 20
314.407922
 42
0.008270
  0
VERTEX
  8
0
 10
564.321981
 20
317.724739
 42
0.007012
  0
VERTEX
  8
0
 10
552.351714
 20
320.865043
 42
0.031110
  0
VERTEX
  8
0
 10
540.971493
 20
322.939857
 42
0.014984
  0
VERTEX
  8
0
 10
526.197452
 20
324.245897
 42
0.012410
  0
VERTEX
  8
0
 10
508.024945
 20
324.852849
 42
0.007014
  0
VERTEX
  8
0
 10
485.983345
 20
324.732482
 42
0.005967
  0
VERTEX
  8
0
 10
465.862671
 20
324.100000
 42
0.010930
  0
VERTEX
  8
0
 10
449.488736
 20
323.030622
 42
0.011104
  0
VERTEX
  8
0
 10
433.351034
 20
321.260013
 42
0.006394
  0
VERTEX
  8
0
 10
414.000000
 20
318.448604
 42
-0.001118
  0
VERTEX
  8
0
 10
407.261082
 20
317.396817
 42
-0.000833
  0
VERTEX
  8
0
 10
399.821875
 20
316.265443
 42
-0.000842
  0
VERTEX
  8
0
 10
392.805220
 20
315.222366
 42
-0.001915
  0
VERTEX
  8
0
 10
387.500000
 20
314.463574
 42
0.004115
  0
VERTEX
  8
0
 10
382.739704
 20
313.761331
 42
0.003117
  0
VERTEX
  8
0
 10
377.528125
 20
312.915320
 42
0.003151
  0
VERTEX
  8
0
 10
372.645598
 20
312.059766
 42
0.007327
  0
VERTEX
  8
0
 10
369.000000
 20
311.341912
 42
0.007773
  0
VERTEX
  8
0
 10
358.800782
 20
309.011622
 42
0.001797
  0
VERTEX
  8
0
 10
341.704040
 20
304.759539
 42
0.001417
  0
VERTEX
  8
0
 10
324.596921
 20
300.387926
 42
0.014164
  0
VERTEX
  8
0
 10
317.500000
 20
298.336806
 42
0.019696
  0
VERTEX
  8
0
 10
295.099202
 20
290.183713
 42
0.009816
  0
VERTEX
  8
0
 10
267.386348
 20
278.202090
 42
0.009514
  0
VERTEX
  8
0
 10
241.032903
 20
265.577783
 42
0.029509
  0
VERTEX
  8
0
 10
223.977497
 20
255.704268
 42
-0.003029
  0
VERTEX
  8
0
 10
219.981549
 20
253.099311
 42
-0.001063
  0
VERTEX
  8
0
 10
214.212836
 20
249.405619
 42
-0.001056
  0
VERTEX
  8
0
 10
207.851792
 20
245.370572
 42
-0.001236
  0
VERTEX
  8
0
 10
201.799505
 20
241.570178
 42
0.011644
  0
VERTEX
  8
0
 10
186.649505
 20
231.611534
 42
0.010265
  0
VERTEX
  8
0
 10
171.319094
 20
220.543143
 42
0.010314
  0
VERTEX
  8
0
 10
156.540044
 20
208.918590
 42
0.012131
  0
VERTEX
  8
0
 10
143.048156
 20
197.289572
 42
-0.016349
  0
VERTEX
  8
0
 10
142.078926
 20
196.468313
 42
-0.026350
  0
VERTEX
  8
0
 10
141.196912
 20
195.841879
 42
-0.024370
  0
VERTEX
  8
0
 10
140.474344
 20
195.431859
 42
-0.323862
  0
VERTEX
  8
0
 10
140.189064
 20
195.477602
 42
-0.347002
  0
VERTEX
  8
0
 10
140.122258
 20
196.044061
 42
-0.006137
  0
VERTEX
  8
0
 10
141.871792
 20
198.816819
 42
-0.014745
  0
VERTEX
  8
0
 10
143.760934
 20
201.550840
 42
-0.027790
  0
VERTEX
  8
0
 10
145.467087
 20
203.619343
 42
0.009817
  0
VERTEX
  8
0
 10
146.096238
 20
204.328584
 42
0.001073
  0
VERTEX
  8
0
 10
147.506978
 20
205.990447
 42
0.001313
  0
VERTEX
  8
0
 10
149.177156
 20
207.977064
 42
0.001060
  0
VERTEX
  8
0
 10
150.960923
 20
210.119343
 42
-0.019429
  0
VERTEX
  8
0
 10
156.438013
 20
216.226415
 42
-0.002600
  0
VERTEX
  8
0
 10
168.536018
 20
228.575643
 42
-0.002811
  0
VERTEX
  8
0
 10
180.755068
 20
240.781337
 42
-0.015954
  0
VERTEX
  8
0
 10
187.500000
 20
247.031247
 42
-0.009386
  0
VERTEX
  8
0
 10
197.395298
 20
255.309347
 42
-0.007945
  0
VERTEX
  8
0
 10
208.153872
 20
263.693365
 42
-0.007803
  0
VERTEX
  8
0
 10
219.396070
 20
271.898630
 42
-0.008112
  0
VERTEX
  8
0
 10
230.745681
 20
279.641013
 42
-0.001213
  0
VERTEX
  8
0
 10
237.392380
 20
283.995815
 42
-0.001965
  0
VERTEX
  8
0
 10
243.068413
 20
287.663298
 42
-0.000283
  0
VERTEX
  8
0
 10
248.120459
 20
290.895503
 42
-0.143113
  0
VERTEX
  8
0
 10
248.478067
 20
291.000000
 42
0.129336
  0
VERTEX
  8
0
 10
248.821417
 20
291.090326
 42
0.001613
  0
VERTEX
  8
0
 10
250.809790
 20
292.222768
 42
0.004626
  0
VERTEX
  8
0
 10
253.103364
 20
293.567202
 42
0.002998
  0
VERTEX
  8
0
 10
255.732387
 20
295.162613
 42
-0.011798
  0
VERTEX
  8
0
 10
259.061443
 20
297.103508
 42
-0.005047
  0
VERTEX
  8
0
 10
263.596389
 20
299.546620
 42
-0.004990
  0
VERTEX
  8
0
 10
268.484583
 20
302.054768
 42
-0.006548
  0
VERTEX
  8
0
 10
273.000000
 20
304.241522
 42
-0.000025
  0
VERTEX
  8
0
 10
277.413586
 20
306.307772
 42
-0.000023
  0
VERTEX
  8
0
 10
281.992175
 20
308.450731
 42
-0.000023
  0
VERTEX
  8
0
 10
286.103218
 20
310.374404
 42
-0.000071
  0
VERTEX
  8
0
 10
288.866979
 20
311.667011
 42
-0.018554
  0
VERTEX
  8
0
 10
294.714481
 20
314.140863
 42
-0.004224
  0
VERTEX
  8
0
 10
304.802812
 20
317.876946
 42
-0.004405
  0
VERTEX
  8
0
 10
316.411485
 20
321.949675
 42
-0.004510
  0
VERTEX
  8
0
 10
328.000000
 20
325.784686
 42
-0.010120
  0
VERTEX
  8
0
 10
338.738151
 20
328.992941
 42
-0.010369
  0
VERTEX
  8
0
 10
349.510974
 20
331.736285
 42
-0.010791
  0
VERTEX
  8
0
 10
359.905423
 20
333.919596
 42
-0.014092
  0
VERTEX
  8
0
 10
369.500000
 20
335.441129
 42
0.001439
  0
VERTEX
  8
0
 10
374.541730
 20
336.110373
 42
0.000815
  0
VERTEX
  8
0
 10
380.646875
 20
336.948799
 42
0.000813
  0
VERTEX
  8
0
 10
386.799345
 20
337.814137
 42
0.001338
  0
VERTEX
  8
0
 10
392.000000
 20
338.568429
 42
-0.030879
  0
VERTEX
  8
0
 10
410.175531
 20
340.116528
 42
-0.005625
  0
VERTEX
  8
0
 10
443.984528
 20
340.521626
 42
-0.006410
  0
VERTEX
  8
0
 10
478.774508
 20
340.101062
 42
-0.016270
  0
VERTEX
  8
0
 10
504.000000
 20
338.650406
 42
-0.005720
  0
VERTEX
  8
0
 10
520.703797
 20
336.950484
 42
-0.005261
  0
VERTEX
  8
0
 10
537.837532
 20
334.825740
 42
-0.005432
  0
VERTEX
  8
0
 10
554.189586
 20
332.441856
 42
-0.007984
  0
VERTEX
  8
0
 10
568.500000
 20
329.961829
 42
0.002451
  0
VERTEX
  8
0
 10
573.187867
 20
329.095868
 42
0.002042
  0
VERTEX
  8
0
 10
578.178125
 20
328.220340
 42
0.002060
  0
VERTEX
  8
0
 10
582.752427
 20
327.456422
 42
0.005604
  0
VERTEX
  8
0
 10
586.000000
 20
326.965117
 42
-0.000165
  0
VERTEX
  8
0
 10
588.753000
 20
326.579218
 42
-0.000142
  0
VERTEX
  8
0
 10
591.650060
 20
326.171315
 42
-0.000143
  0
VERTEX
  8
0
 10
594.280951
 20
325.799364
 42
-0.000410
  0
VERTEX
  8
0
 10
596.106586
 20
325.539202
 42
0.000000
  0
VERTEX
  8
0
 10
599.713172
 20
325.022230
 42
0.000000
  0
VERTEX
  8
0
 10
601.020431
 20
334.261115
 42
-0.036487
  0
VERTEX
  8
0
 10
603.718214
 20
346.704358
 42
-0.033037
  0
VERTEX
  8
0
 10
608.262525
 20
359.057826
 42
-0.033223
  0
VERTEX
  8
0
 10
614.361604
 20
370.632388
 42
-0.038079
  0
VERTEX
  8
0
 10
621.699957
 20
380.750000
 42
0.000000
  0
VERTEX
  8
0
 10
626.154646
 20
386.000000
 42
0.000000
  0
VERTEX
  8
0
 10
638.327323
 20
386.018197
 42
0.024930
  0
VERTEX
  8
0
 10
650.519572
 20
386.644766
 42
0.012609
  0
VERTEX
  8
0
 10
665.781269
 20
388.584393
 42
0.010274
  0
VERTEX
  8
0
 10
680.176758
 20
391.087767
 42
0.072602
  0
VERTEX
  8
0
 10
686.858737
 20
393.433969
 42
0.381914
  0
VERTEX
  8
0
 10
687.099230
 20
394.075747
 42
0.262386
  0
VERTEX
  8
0
 10
686.460919
 20
394.598811
 42
0.027896
  0
VERTEX
  8
0
 10
683.389028
 20
394.961455
 42
0.002477
  0
VERTEX
  8
0
 10
675.604771
 20
395.403888
 42
-0.017004
  0
VERTEX
  8
0
 10
664.779756
 20
396.335231
 42
-0.013255
  0
VERTEX
  8
0
 10
653.097513
 20
398.057087
 42
-0.013441
  0
VERTEX
  8
0
 10
641.786501
 20
400.346708
 42
-0.020396
  0
VERTEX
  8
0
 10
632.110605
 20
402.997439
 42
-0.048219
  0
VERTEX
  8
0
 10
619.123166
 20
408.558098
 42
-0.061683
  0
VERTEX
  8
0
 10
608.572881
 20
416.155767
 42
-0.056541
  0
VERTEX
  8
0
 10
599.542357
 20
426.651307
 42
-0.032826
  0
VERTEX
  8
0
 10
591.098175
 20
441.000000
 42
-0.028956
  0
VERTEX
  8
0
 10
587.361575
 20
449.635033
 42
-0.015122
  0
VERTEX
  8
0
 10
583.670193
 20
460.764524
 42
-0.014008
  0
VERTEX
  8
0
 10
580.782055
 20
471.534521
 42
-0.058563
  0
VERTEX
  8
0
 10
580.000000
 20
478.188612
 42
0.000000
  0
VERTEX
  8
0
 10
580.000000
 20
482.960225
 42
0.000000
  0
VERTEX
  8
0
 10
601.250000
 20
483.251090
 42
0.000228
  0
VERTEX
  8
0
 10
610.309656
 20
483.379231
 42
0.000189
  0
VERTEX
  8
0
 10
619.960900
 20
483.523789
 42
0.000190
  0
VERTEX
  8
0
 10
628.811526
 20
483.663070
 42
0.000512
  0
VERTEX
  8
0
 10
635.106255
 20
483.770978
 42
0.000000
  0
VERTEX
  8
0
 10
647.712510
 20
484.000000
 42
0.000000
  0
SEQEND
  0
POLYLINE
  8
0
 66
1
 70
1
  0
VERTEX
  8
0
 10
676.792907
 20
477.790302
 42
0.000029
  0
VERTEX
  8
0
 10
679.013955
 20
476.152201
 42
0.000043
  0
VERTEX
  8
0
 10
680.961909
 20
474.715954
 42
0.000019
  0
VERTEX
  8
0
 10
682.626382
 20
473.489043
 42
0.000865
  0
VERTEX
  8
0
 10
682.971040
 20
473.235929
 42
-0.226933
  0
VERTEX
  8
0
 10
683.071516
 20
473.048811
 42
-0.124261
  0
VERTEX
  8
0
 10
683.018469
 20
472.788162
 42
-0.080283
  0
VERTEX
  8
0
 10
682.808889
 20
472.487181
 42
-0.045204
  0
VERTEX
  8
0
 10
682.471040
 20
472.195627
 42
0.079133
  0
VERTEX
  8
0
 10
681.988885
 20
471.719062
 42
0.013747
  0
VERTEX
  8
0
 10
681.257317
 20
470.662930
 42
0.014636
  0
VERTEX
  8
0
 10
680.462087
 20
469.363070
 42
0.012648
  0
VERTEX
  8
0
 10
679.702806
 20
467.954772
 42
0.093563
  0
VERTEX
  8
0
 10
678.588645
 20
464.117684
 42
0.163088
  0
VERTEX
  8
0
 10
679.327661
 20
460.922839
 42
0.162092
  0
VERTEX
  8
0
 10
681.847934
 20
458.805373
 42
0.092190
  0
VERTEX
  8
0
 10
685.795455
 20
458.031803
 42
0.102710
  0
VERTEX
  8
0
 10
688.481793
 20
458.562528
 42
0.066203
  0
VERTEX
  8
0
 10
691.226042
 20
460.177695
 42
0.069267
  0
VERTEX
  8
0
 10
693.308617
 20
462.332723
 42
0.158813
  0
VERTEX
  8
0
 10
694.000000
 20
464.454545
 42
-0.105152
  0
VERTEX
  8
0
 10
694.225309
 20
465.514043
 42
-0.306996
  0
VERTEX
  8
0
 10
694.828729
 20
465.889005
 42
-0.090775
  0
VERTEX
  8
0
 10
696.074653
 20
465.609376
 42
-0.007390
  0
VERTEX
  8
0
 10
699.146588
 20
464.250000
 42
-0.062722
  0
VERTEX
  8
0
 10
701.931206
 20
462.517069
 42
-0.231740
  0
VERTEX
  8
0
 10
702.776648
 20
460.690057
 42
-0.166389
  0
VERTEX
  8
0
 10
701.954854
 20
458.451238
 42
-0.030956
  0
VERTEX
  8
0
 10
698.946650
 20
455.179430
 42
-0.061763
  0
VERTEX
  8
0
 10
694.010479
 20
451.488207
 42
-0.079227
  0
VERTEX
  8
0
 10
688.710924
 20
449.489859
 42
-0.077316
  0
VERTEX
  8
0
 10
682.950501
 20
449.212326
 42
-0.055611
  0
VERTEX
  8
0
 10
676.652233
 20
450.602829
 42
-0.075486
  0
VERTEX
  8
0
 10
671.371860
 20
453.345689
 42
-0.068518
  0
VERTEX
  8
0
 10
666.942829
 20
457.611164
 42
-0.071646
  0
VERTEX
  8
0
 10
663.996181
 20
462.706210
 42
-0.099827
  0
VERTEX
  8
0
 10
663.043893
 20
467.872124
 42
-0.070530
  0
VERTEX
  8
0
 10
663.727067
 20
472.173051
 42
-0.042621
  0
VERTEX
  8
0
 10
665.660990
 20
476.965588
 42
-0.040592
  0
VERTEX
  8
0
 10
668.090910
 20
480.930011
 42
-0.239366
  0
VERTEX
  8
0
 10
670.197894
 20
482.000000
 42
-0.136714
  0
VERTEX
  8
0
 10
670.764861
 20
481.842023
 42
-0.006158
  0
VERTEX
  8
0
 10
672.501446
 20
480.763401
 42
-0.009940
  0
VERTEX
  8
0
 10
674.541848
 20
479.403153
 42
-0.006915
  0
SEQEND
  0
POLYLINE
  8
0
 66
1
 70
1
  0
VERTEX
  8
0
 10
379.000000
 20
443.639890
 42
-0.009717
  0
VERTEX
  8
0
 10
403.496420
 20
439.815361
 42
-0.010325
  0
VERTEX
  8
0
 10
427.333002
 20
435.108427
 42
-0.009943
  0
VERTEX
  8
0
 10
451.748807
 20
429.249955
 42
-0.007788
  0
VERTEX
  8
0
 10
478.000000
 20
421.957723
 42
0.001427
  0
VERTEX
  8
0
 10
491.382614
 20
418.056173
 42
0.002191
  0
VERTEX
  8
0
 10
502.995661
 20
414.761506
 42
0.002504
  0
VERTEX
  8
0
 10
513.253312
 20
411.955171
 42
0.003447
  0
VERTEX
  8
0
 10
522.500000
 20
409.543338
 42
-0.002151
  0
VERTEX
  8
0
 10
528.665504
 20
407.952238
 42
-0.001024
  0
VERTEX
  8
0
 10
536.586674
 20
405.854327
 42
-0.001015
  0
VERTEX
  8
0
 10
544.856602
 20
403.627923
 42
-0.001442
  0
VERTEX
  8
0
 10
552.199316
 20
401.612397
 42
0.002738
  0
VERTEX
  8
0
 10
559.164867
 20
399.719802
 42
0.002586
  0
VERTEX
  8
0
 10
566.284659
 20
397.866466
 42
0.002568
  0
VERTEX
  8
0
 10
572.606607
 20
396.290215
 42
0.009019
  0
VERTEX
  8
0
 10
576.699316
 20
395.369962
 42
-0.008715
  0
VERTEX
  8
0
 10
585.551503
 20
393.385179
 42
-0.003779
  0
VERTEX
  8
0
 10
597.257632
 20
390.451489
 42
-0.000806
  0
VERTEX
  8
0
 10
609.578647
 20
387.243336
 42
-0.133042
  0
VERTEX
  8
0
 10
610.778196
 20
386.555137
 42
-0.690508
  0
VERTEX
  8
0
 10
610.305954
 20
385.506836
 42
-0.002587
  0
VERTEX
  8
0
 10
591.892350
 20
386.729224
 42
-0.007502
  0
VERTEX
  8
0
 10
572.464192
 20
388.413257
 42
-0.009386
  0
VERTEX
  8
0
 10
554.500000
 20
390.583692
 42
-0.010573
  0
VERTEX
  8
0
 10
536.457143
 20
393.498259
 42
-0.002632
  0
VERTEX
  8
0
 10
507.079396
 20
399.043485
 42
-0.002665
  0
VERTEX
  8
0
 10
477.698042
 20
404.912396
 42
-0.010000
  0
VERTEX
  8
0
 10
459.356019
 20
409.061899
 42
0.009011
  0
VERTEX
  8
0
 10
452.920176
 20
410.531267
 42
0.004609
  0
VERTEX
  8
0
 10
444.796268
 20
412.154598
 42
0.003494
  0
VERTEX
  8
0
 10
434.291835
 20
414.077142
 42
0.001487
  0
VERTEX
  8
0
 10
420.200184
 20
416.511413
 42
0.019337
  0
VERTEX
  8
0
 10
415.459082
 20
417.128427
 42
0.003683
  0
VERTEX
  8
0
 10
406.789010
 20
417.853010
 42
0.003924
  0
VERTEX
  8
0
 10
396.648141
 20
418.545338
 42
0.003598
  0
VERTEX
  8
0
 10
386.200184
 20
419.100865
 42
0.002862
  0
VERTEX
  8
0
 10
371.205450
 20
419.703975
 42
0.012017
  0
VERTEX
  8
0
 10
362.188862
 20
419.798124
 42
0.016099
  0
VERTEX
  8
0
 10
354.510111
 20
419.446281
 42
0.008470
  0
VERTEX
  8
0
 10
345.000000
 20
418.540827
 42
0.005014
  0
VERTEX
  8
0
 10
332.923881
 20
417.061542
 42
0.011080
  0
VERTEX
  8
0
 10
323.748594
 20
415.636552
 42
0.012294
  0
VERTEX
  8
0
 10
315.254760
 20
413.907478
 42
0.007828
  0
VERTEX
  8
0
 10
305.459219
 20
411.499250
 42
0.018637
  0
VERTEX
  8
0
 10
285.165383
 20
405.354906
 42
0.017335
  0
VERTEX
  8
0
 10
264.881336
 20
397.582232
 42
0.017949
  0
VERTEX
  8
0
 10
246.076180
 20
388.809538
 42
0.026292
  0
VERTEX
  8
0
 10
230.279127
 20
379.660406
 42
-0.002020
  0
VERTEX
  8
0
 10
226.326310
 20
377.107251
 42
-0.003205
  0
VERTEX
  8
0
 10
222.918879
 20
374.956494
 42
-0.000753
  0
VERTEX
  8
0
 10
219.923480
 20
373.098811
 42
-0.139295
  0
VERTEX
  8
0
 10
219.575678
 20
373.000000
 42
0.154195
  0
VERTEX
  8
0
 10
218.376090
 20
372.621050
 42
0.000577
  0
VERTEX
  8
0
 10
206.301748
 20
364.126010
 42
0.003228
  0
VERTEX
  8
0
 10
195.329175
 20
356.280617
 42
0.011720
  0
VERTEX
  8
0
 10
188.506276
 20
351.087153
 42
-0.000452
  0
VERTEX
  8
0
 10
185.754005
 20
348.892491
 42
-0.000618
  0
VERTEX
  8
0
 10
183.271365
 20
346.921513
 42
-0.000399
  0
VERTEX
  8
0
 10
181.181627
 20
345.269384
 42
-0.007246
  0
VERTEX
  8
0
 10
180.506276
 20
344.752039
 42
0.022188
  0
VERTEX
  8
0
 10
162.208632
 20
329.847212
 42
0.011639
  0
VERTEX
  8
0
 10
140.749114
 20
309.806918
 42
0.011455
  0
VERTEX
  8
0
 10
119.341588
 20
287.879257
 42
0.015384
  0
VERTEX
  8
0
 10
101.039362
 20
267.000000
 42
-0.003158
  0
VERTEX
  8
0
 10
94.826643
 20
259.552818
 42
-0.006759
  0
VERTEX
  8
0
 10
89.917520
 20
253.900042
 42
-0.002133
  0
VERTEX
  8
0
 10
85.847473
 20
249.378425
 42
-0.428416
  0
VERTEX
  8
0
 10
85.301417
 20
249.365250
 42
-0.348658
  0
VERTEX
  8
0
 10
85.205632
 20
250.198575
 42
-0.001045
  0
VERTEX
  8
0
 10
91.346510
 20
260.023836
 42
-0.005917
  0
VERTEX
  8
0
 10
97.554430
 20
269.655343
 42
-0.008570
  0
VERTEX
  8
0
 10
103.281741
 20
278.000000
 42
-0.004135
  0
VERTEX
  8
0
 10
114.973541
 20
294.140083
 42
-0.003684
  0
VERTEX
  8
0
 10
127.385488
 20
310.722236
 42
-0.001548
  0
VERTEX
  8
0
 10
139.093820
 20
326.027871
 42
-0.062990
  0
VERTEX
  8
0
 10
142.045366
 20
329.000000
 42
0.054270
  0
VERTEX
  8
0
 10
142.439365
 20
329.383190
 42
0.002877
  0
VERTEX
  8
0
 10
143.549651
 20
330.741907
 42
0.004496
  0
VERTEX
  8
0
 10
144.848668
 20
332.380314
 42
0.003256
  0
VERTEX
  8
0
 10
146.267342
 20
334.227770
 42
-0.013272
  0
VERTEX
  8
0
 10
158.622641
 20
349.667044
 42
-0.010583
  0
VERTEX
  8
0
 10
172.727984
 20
365.665253
 42
-0.009038
  0
VERTEX
  8
0
 10
185.949074
 20
379.524357
 42
-0.058082
  0
VERTEX
  8
0
 10
193.500000
 20
385.566392
 42
0.012182
  0
VERTEX
  8
0
 10
195.211873
 20
386.695740
 42
0.002075
  0
VERTEX
  8
0
 10
198.409375
 20
388.938576
 42
0.002264
  0
VERTEX
  8
0
 10
202.142901
 20
391.606032
 42
0.002015
  0
VERTEX
  8
0
 10
206.000000
 20
394.411943
 42
-0.001138
  0
VERTEX
  8
0
 10
219.781490
 20
404.474537
 42
-0.006125
  0
VERTEX
  8
0
 10
227.360201
 20
409.841141
 42
-0.010894
  0
VERTEX
  8
0
 10
232.821625
 20
413.435839
 42
-0.012735
  0
VERTEX
  8
0
 10
238.161046
 20
416.599270
 42
-0.005611
  0
VERTEX
  8
0
 10
241.227520
 20
418.267219
 42
-0.005388
  0
VERTEX
  8
0
 10
244.372307
 20
419.889167
 42
-0.005342
  0
VERTEX
  8
0
 10
247.175832
 20
421.259765
 42
-0.019354
  0
VERTEX
  8
0
 10
249.000000
 20
422.042496
 42
0.008378
  0
VERTEX
  8
0
 10
250.376914
 20
422.597862
 42
0.010865
  0
VERTEX
  8
0
 10
251.618750
 20
423.155217
 42
0.008726
  0
VERTEX
  8
0
 10
252.632792
 20
423.658948
 42
0.090388
  0
VERTEX
  8
0
 10
253.000000
 20
423.943226
 42
-0.099771
  0
VERTEX
  8
0
 10
254.399983
 20
424.985979
 42
-0.004321
  0
VERTEX
  8
0
 10
259.981693
 20
427.563856
 42
-0.008088
  0
VERTEX
  8
0
 10
265.999926
 20
430.164139
 42
-0.011094
  0
VERTEX
  8
0
 10
271.500000
 20
432.294121
 42
-0.014273
  0
VERTEX
  8
0
 10
285.588652
 20
436.943404
 42
-0.017655
  0
VERTEX
  8
0
 10
298.960472
 20
440.427668
 42
-0.016587
  0
VERTEX
  8
0
 10
313.206796
 20
443.114707
 42
-0.010435
  0
VERTEX
  8
0
 10
330.000000
 20
445.350911
 42
-0.030620
  0
VERTEX
  8
0
 10
338.262163
 20
445.766789
 42
-0.005994
  0
VERTEX
  8
0
 10
353.149609
 20
445.425569
 42
-0.006658
  0
VERTEX
  8
0
 10
368.352923
 20
444.691903
 42
-0.018479
  0
SEQEND
  0
POLYLINE
  8
0
 66
1
 70
1
  0
VERTEX
  8
0
 10
810.529882
 20
327.551961
 42
-0.128404
  0
VERTEX
  8
0
 10
814.362121
 20
324.631473
 42
-0.205695
  0
VERTEX
  8
0
 10
815.397190
 20
320.716375
 42
-0.095236
  0
VERTEX
  8
0
 10
813.349210
 20
314.874179
 42
-0.017253
  0
VERTEX
  8
0
 10
807.199201
 20
305.098804
 42
-0.018523
  0
VERTEX
  8
0
 10
802.108688
 20
298.162456
 42
-0.013628
  0
VERTEX
  8
0
 10
795.985047
 20
290.853827
 42
-0.005364
  0
VERTEX
  8
0
 10
789.898646
 20
284.126044
 42
-0.420632
  0
VERTEX
  8
0
 10
788.598391
 20
284.089170
 42
-0.240034
  0
VERTEX
  8
0
 10
788.423412
 20
284.597260
 42
-0.006614
  0
VERTEX
  8
0
 10
788.789534
 20
286.975952
 42
-0.012244
  0
VERTEX
  8
0
 10
789.338358
 20
289.822998
 42
-0.007927
  0
VERTEX
  8
0
 10
790.105776
 20
293.089170
 42
0.009628
  0
VERTEX
  8
0
 10
791.046813
 20
297.156345
 42
0.004279
  0
VERTEX
  8
0
 10
792.138055
 20
302.551819
 42
0.004234
  0
VERTEX
  8
0
 10
793.196379
 20
308.285240
 42
0.005708
  0
VERTEX
  8
0
 10
794.050732
 20
313.491492
 42
-0.005885
  0
VERTEX
  8
0
 10
795.097299
 20
319.854965
 42
-0.027073
  0
VERTEX
  8
0
 10
795.945136
 20
323.493888
 42
-0.048497
  0
VERTEX
  8
0
 10
796.856764
 20
325.776583
 42
-0.103684
  0
VERTEX
  8
0
 10
798.049903
 20
327.241492
 42
-0.102136
  0
VERTEX
  8
0
 10
800.410332
 20
328.461648
 42
-0.062244
  0
VERTEX
  8
0
 10
803.525618
 20
328.929927
 42
-0.055925
  0
VERTEX
  8
0
 10
807.025731
 20
328.625133
 42
-0.049336
  0
SEQEND
  0
POLYLINE
  8
0
 66
1
 70
1
  0
VERTEX
  8
0
 10
762.421402
 20
202.750000
 42
-0.018634
  0
VERTEX
  8
0
 10
761.173721
 20
195.815833
 42
-0.008167
  0
VERTEX
  8
0
 10
759.030209
 20
186.727672
 42
-0.007549
  0
VERTEX
  8
0
 10
756.681117
 20
178.004608
 42
-0.032037
  0
VERTEX
  8
0
 10
754.868142
 20
172.915125
 42
-0.021203
  0
VERTEX
  8
0
 10
753.913746
 20
170.932581
 42
-0.023445
  0
VERTEX
  8
0
 10
752.823604
 20
169.105420
 42
-0.023682
  0
VERTEX
  8
0
 10
751.755266
 20
167.646844
 42
-0.100301
  0
VERTEX
  8
0
 10
750.925429
 20
166.960091
 42
-0.119272
  0
VERTEX
  8
0
 10
747.302090
 20
166.019542
 42
-0.065619
  0
VERTEX
  8
0
 10
742.726369
 20
166.545749
 42
-0.067838
  0
VERTEX
  8
0
 10
738.659733
 20
168.174813
 42
-0.173691
  0
VERTEX
  8
0
 10
736.621181
 20
170.544802
 42
-0.108884
  0
VERTEX
  8
0
 10
736.219358
 20
173.212630
 42
-0.099947
  0
VERTEX
  8
0
 10
736.951640
 20
175.893450
 42
-0.048983
  0
VERTEX
  8
0
 10
739.199615
 20
179.449152
 42
-0.008271
  0
VERTEX
  8
0
 10
744.250000
 20
185.717525
 42
0.003752
  0
VERTEX
  8
0
 10
747.701881
 20
189.923507
 42
0.003276
  0
VERTEX
  8
0
 10
751.251562
 20
194.374792
 42
0.003295
  0
VERTEX
  8
0
 10
754.407699
 20
198.441057
 42
0.009762
  0
VERTEX
  8
0
 10
756.500000
 20
201.287131
 42
-0.014496
  0
VERTEX
  8
0
 10
759.812317
 20
205.704505
 42
-0.165540
  0
VERTEX
  8
0
 10
761.619233
 20
206.863455
 42
-0.474384
  0
VERTEX
  8
0
 10
762.590040
 20
206.135058
 42
-0.045525
  0
SEQEND
  0
POLYLINE
  8
0
 66
1
 70
1
  0
VERTEX
  8
0
 10
441.500000
 20
199.019662
 42
-0.009107
  0
VERTEX
  8
0
 10
465.934502
 20
196.581268
 42
-0.018349
  0
VERTEX
  8
0
 10
485.064322
 20
193.604512
 42
-0.018868
  0
VERTEX
  8
0
 10
503.580457
 20
189.292596
 42
-0.010238
  0
VERTEX
  8
0
 10
526.000000
 20
182.675402
 42
-0.020406
  0
VERTEX
  8
0
 10
532.732063
 20
180.231075
 42
-0.013117
  0
VERTEX
  8
0
 10
540.334308
 20
176.878672
 42
-0.013101
  0
VERTEX
  8
0
 10
547.771002
 20
173.122059
 42
-0.019939
  0
VERTEX
  8
0
 10
554.000000
 20
169.440286
 42
-0.032420
  0
VERTEX
  8
0
 10
564.442582
 20
161.689380
 42
-0.060684
  0
VERTEX
  8
0
 10
571.574944
 20
153.975436
 42
-0.071810
  0
VERTEX
  8
0
 10
575.875424
 20
145.748197
 42
-0.068358
  0
VERTEX
  8
0
 10
577.767214
 20
136.500000
 42
-0.018644
  0
VERTEX
  8
0
 10
577.883158
 20
132.358189
 42
-0.042633
  0
VERTEX
  8
0
 10
577.588546
 20
129.250290
 42
-0.036542
  0
VERTEX
  8
0
 10
576.738770
 20
125.960428
 42
-0.010651
  0
VERTEX
  8
0
 10
574.958030
 20
121.038240
 42
-0.018816
  0
VERTEX
  8
0
 10
572.691462
 20
115.766551
 42
-0.049207
  0
VERTEX
  8
0
 10
570.567052
 20
112.238666
 42
-0.034057
  0
VERTEX
  8
0
 10
567.384003
 20
108.523710
 42
-0.005429
  0
VERTEX
  8
0
 10
560.595651
 20
101.762285
 42
-0.012061
  0
VERTEX
  8
0
 10
553.139090
 20
94.837584
 42
-0.018395
  0
VERTEX
  8
0
 10
546.314046
 20
89.232964
 42
-0.015246
  0
VERTEX
  8
0
 10
538.222067
 20
83.452976
 42
-0.005569
  0
VERTEX
  8
0
 10
526.437985
 20
75.755605
 42
-0.008012
  0
VERTEX
  8
0
 10
518.002763
 20
70.566964
 42
-0.194969
  0
VERTEX
  8
0
 10
515.330121
 20
70.162134
 42
-0.592079
  0
VERTEX
  8
0
 10
514.974963
 20
71.461224
 42
-0.012677
  0
VERTEX
  8
0
 10
521.050621
 20
77.044202
 42
0.025529
  0
VERTEX
  8
0
 10
526.390399
 20
82.210216
 42
0.013394
  0
VERTEX
  8
0
 10
532.514069
 20
89.134676
 42
0.011195
  0
VERTEX
  8
0
 10
537.976060
 20
95.959570
 42
0.072430
  0
VERTEX
  8
0
 10
540.114605
 20
99.801435
 42
-0.021348
  0
VERTEX
  8
0
 10
540.600269
 20
100.931161
 42
-0.010892
  0
VERTEX
  8
0
 10
541.300542
 20
102.308099
 42
-0.010802
  0
VERTEX
  8
0
 10
542.085313
 20
103.698436
 42
-0.015921
  0
VERTEX
  8
0
 10
542.838568
 20
104.880606
 42
0.044583
  0
VERTEX
  8
0
 10
544.073069
 20
107.087380
 42
0.021172
  0
VERTEX
  8
0
 10
545.277881
 20
110.116171
 42
0.018536
  0
VERTEX
  8
0
 10
546.410595
 20
113.788453
 42
0.012968
  0
VERTEX
  8
0
 10
547.424229
 20
118.000000
 42
0.079304
  0
VERTEX
  8
0
 10
547.597468
 20
121.330057
 42
0.016931
  0
VERTEX
  8
0
 10
546.785355
 20
127.086310
 42
0.018612
  0
VERTEX
  8
0
 10
545.510283
 20
133.032509
 42
0.039047
  0
VERTEX
  8
0
 10
543.994913
 20
137.507513
 42
0.040839
  0
VERTEX
  8
0
 10
541.894386
 20
141.481925
 42
0.040980
  0
VERTEX
  8
0
 10
539.177928
 20
145.057158
 42
0.035426
  0
VERTEX
  8
0
 10
535.562325
 20
148.551304
 42
0.019720
  0
VERTEX
  8
0
 10
530.712375
 20
152.300305
 42
0.015826
  0
VERTEX
  8
0
 10
524.631490
 20
156.345197
 42
0.028239
  0
VERTEX
  8
0
 10
519.357905
 20
159.218386
 42
0.026258
  0
VERTEX
  8
0
 10
513.539005
 20
161.609565
 42
0.011743
  0
VERTEX
  8
0
 10
505.664074
 20
164.166089
 42
0.003852
  0
VERTEX
  8
0
 10
494.572932
 20
167.388076
 42
0.012359
  0
VERTEX
  8
0
 10
487.119067
 20
169.293735
 42
0.012869
  0
VERTEX
  8
0
 10
479.738381
 20
170.788685
 42
0.004459
  0
VERTEX
  8
0
 10
469.018872
 20
172.575726
 42
0.007418
  0
VERTEX
  8
0
 10
451.530882
 20
175.065793
 42
0.013725
  0
VERTEX
  8
0
 10
437.253933
 20
176.486051
 42
0.012689
  0
VERTEX
  8
0
 10
422.199226
 20
177.183994
 42
0.005388
  0
VERTEX
  8
0
 10
402.000000
 20
177.389527
 42
0.010667
  0
VERTEX
  8
0
 10
369.067945
 20
176.667082
 42
0.013110
  0
VERTEX
  8
0
 10
338.394687
 20
174.532267
 42
0.013784
  0
VERTEX
  8
0
 10
309.270945
 20
170.923840
 42
0.014680
  0
VERTEX
  8
0
 10
281.000000
 20
165.773674
 42
-0.003097
  0
VERTEX
  8
0
 10
276.638487
 20
164.874281
 42
-0.001752
  0
VERTEX
  8
0
 10
271.343199
 20
163.835762
 42
-0.001749
  0
VERTEX
  8
0
 10
265.996806
 20
162.826040
 42
-0.002876
  0
VERTEX
  8
0
 10
261.466209
 20
162.013713
 42
0.017714
  0
VERTEX
  8
0
 10
250.267681
 20
159.660918
 42
0.006656
  0
VERTEX
  8
0
 10
234.758098
 20
155.604335
 42
0.006664
  0
VERTEX
  8
0
 10
218.255221
 20
150.814861
 42
0.009047
  0
VERTEX
  8
0
 10
203.500000
 20
146.025142
 42
-0.000797
  0
VERTEX
  8
0
 10
197.955660
 20
144.123715
 42
-0.001041
  0
VERTEX
  8
0
 10
192.878125
 20
142.403207
 42
-0.000767
  0
VERTEX
  8
0
 10
188.616863
 20
140.976442
 42
-0.009689
  0
VERTEX
  8
0
 10
187.000000
 20
140.472424
 42
0.023311
  0
VERTEX
  8
0
 10
181.439188
 20
138.571342
 42
0.003192
  0
VERTEX
  8
0
 10
170.060213
 20
133.994580
 42
0.003908
  0
VERTEX
  8
0
 10
158.502684
 20
129.154218
 42
0.010913
  0
VERTEX
  8
0
 10
150.500000
 20
125.520251
 42
0.001873
  0
VERTEX
  8
0
 10
134.377399
 20
117.695845
 42
0.002634
  0
VERTEX
  8
0
 10
120.055953
 20
110.585337
 42
0.002517
  0
VERTEX
  8
0
 10
108.419096
 20
104.657512
 42
0.015243
  0
VERTEX
  8
0
 10
102.500000
 20
101.372548
 42
-0.002826
  0
VERTEX
  8
0
 10
99.734003
 20
99.746372
 42
-0.001583
  0
VERTEX
  8
0
 10
96.353125
 20
97.798606
 42
-0.001579
  0
VERTEX
  8
0
 10
92.924066
 20
95.851856
 42
-0.002571
  0
VERTEX
  8
0
 10
90.000000
 20
94.223743
 42
0.006921
  0
VERTEX
  8
0
 10
80.584924
 20
88.873628
 42
0.002656
  0
VERTEX
  8
0
 10
67.641684
 20
81.187029
 42
0.001087
  0
VERTEX
  8
0
 10
54.440668
 20
73.213089
 42
0.044417
  0
VERTEX
  8
0
 10
51.743869
 20
71.228858
 42
-0.036711
  0
VERTEX
  8
0
 10
51.024475
 20
70.682290
 42
-0.053584
  0
VERTEX
  8
0
 10
50.315176
 20
70.322646
 42
-0.068285
  0
VERTEX
  8
0
 10
49.718193
 20
70.185482
 42
-0.222276
  0
VERTEX
  8
0
 10
49.346289
 20
70.320378
 42
-0.399354
  0
VERTEX
  8
0
 10
49.311768
 20
71.673880
 42
-0.011268
  0
VERTEX
  8
0
 10
53.677113
 20
76.295092
 42
-0.016045
  0
VERTEX
  8
0
 10
59.736106
 20
82.045120
 42
-0.007756
  0
VERTEX
  8
0
 10
67.833783
 20
89.028444
 42
0.000415
  0
VERTEX
  8
0
 10
72.405174
 20
92.855177
 42
0.000476
  0
VERTEX
  8
0
 10
76.768343
 20
96.520851
 42
0.000428
  0
VERTEX
  8
0
 10
80.464466
 20
99.637529
 42
0.002718
  0
VERTEX
  8
0
 10
82.333783
 20
101.234027
 42
-0.009574
  0
VERTEX
  8
0
 10
83.596051
 20
102.282486
 42
-0.013274
  0
VERTEX
  8
0
 10
84.769254
 20
103.169625
 42
-0.009778
  0
VERTEX
  8
0
 10
85.770574
 20
103.856629
 42
-0.140474
  0
VERTEX
  8
0
 10
86.178571
 20
103.984027
 42
0.109602
  0
VERTEX
  8
0
 10
86.524870
 20
104.069458
 42
0.026036
  0
VERTEX
  8
0
 10
87.045982
 20
104.362495
 42
0.025551
  0
VERTEX
  8
0
 10
87.622866
 20
104.770356
 42
0.022785
  0
VERTEX
  8
0
 10
88.178571
 20
105.250000
 42
-0.050022
  0
VERTEX
  8
0
 10
92.516652
 20
108.600619
 42
-0.001772
  0
VERTEX
  8
0
 10
110.499763
 20
119.729401
 42
-0.000748
  0
VERTEX
  8
0
 10
129.538961
 20
131.379393
 42
-0.137768
  0
VERTEX
  8
0
 10
131.748581
 20
132.000000
 42
0.074674
  0
VERTEX
  8
0
 10
132.188178
 20
132.066021
 42
0.064804
  0
VERTEX
  8
0
 10
132.612604
 20
132.259425
 42
0.067282
  0
VERTEX
  8
0
 10
132.958259
 20
132.545498
 42
0.096339
  0
VERTEX
  8
0
 10
133.166667
 20
132.883149
 42
-0.192726
  0
VERTEX
  8
0
 10
135.028911
 20
134.915745
 42
-0.001135
  0
VERTEX
  8
0
 10
158.489429
 20
146.134571
 42
-0.005261
  0
VERTEX
  8
0
 10
181.095887
 20
156.591818
 42
-0.010904
  0
VERTEX
  8
0
 10
199.000000
 20
164.181301
 42
-0.015100
  0
VERTEX
  8
0
 10
218.353931
 20
171.222598
 42
-0.009762
  0
VERTEX
  8
0
 10
241.138230
 20
178.250869
 42
-0.009636
  0
VERTEX
  8
0
 10
264.707732
 20
184.531282
 42
-0.012583
  0
VERTEX
  8
0
 10
286.500000
 20
189.312474
 42
-0.000791
  0
VERTEX
  8
0
 10
302.933152
 20
192.459788
 42
-0.004871
  0
VERTEX
  8
0
 10
311.410919
 20
193.984151
 42
-0.008947
  0
VERTEX
  8
0
 10
316.664623
 20
194.779623
 42
-0.033162
  0
VERTEX
  8
0
 10
320.006602
 20
195.000777
 42
0.022342
  0
VERTEX
  8
0
 10
321.599414
 20
195.071632
 42
0.013043
  0
VERTEX
  8
0
 10
323.498389
 20
195.291398
 42
0.013026
  0
VERTEX
  8
0
 10
325.391792
 20
195.611252
 42
0.021478
  0
VERTEX
  8
0
 10
326.969372
 20
195.991216
 42
-0.042629
  0
VERTEX
  8
0
 10
330.428760
 20
196.671219
 42
-0.003669
  0
VERTEX
  8
0
 10
339.398380
 20
197.585202
 42
-0.003431
  0
VERTEX
  8
0
 10
352.609956
 20
198.742126
 42
-0.000934
  0
VERTEX
  8
0
 10
373.500000
 20
200.387800
 42
-0.021565
  0
VERTEX
  8
0
 10
383.554696
 20
200.726001
 42
-0.002654
  0
VERTEX
  8
0
 10
405.527493
 20
200.400591
 42
-0.003227
  0
VERTEX
  8
0
 10
427.625253
 20
199.813299
 42
-0.012057
  0
SEQEND
  0
POLYLINE
  8
0
 66
1
 70
1
  0
VERTEX
  8
0
 10
737.000000
 20
400.590351
 42
0.349241
  0
VERTEX
  8
0
 10
737.151176
 20
400.400314
 42
0.002889
  0
VERTEX
  8
0
 10
739.129688
 20
399.955751
 42
0.008471
  0
VERTEX
  8
0
 10
741.470296
 20
399.485415
 42
0.005158
  0
VERTEX
  8
0
 10
744.250000
 20
399.005261
 42
-0.016438
  0
VERTEX
  8
0
 10
751.445129
 20
397.594587
 42
-0.002514
  0
VERTEX
  8
0
 10
765.659450
 20
394.243833
 42
-0.003042
  0
VERTEX
  8
0
 10
780.649398
 20
390.533939
 42
-0.005671
  0
VERTEX
  8
0
 10
792.740297
 20
387.316947
 42
0.010378
  0
VERTEX
  8
0
 10
795.875497
 20
386.514302
 42
0.038320
  0
VERTEX
  8
0
 10
797.894138
 20
386.202461
 42
0.065491
  0
VERTEX
  8
0
 10
799.252917
 20
386.276082
 42
0.151256
  0
VERTEX
  8
0
 10
800.147915
 20
386.747915
 42
0.484556
  0
VERTEX
  8
0
 10
799.820213
 20
389.535179
 42
0.060197
  0
VERTEX
  8
0
 10
793.396665
 20
392.489560
 42
0.028515
  0
VERTEX
  8
0
 10
780.921773
 20
395.725695
 42
0.007388
  0
VERTEX
  8
0
 10
760.500000
 20
399.484613
 42
0.018732
  0
VERTEX
  8
0
 10
753.737968
 20
400.367230
 42
0.011329
  0
VERTEX
  8
0
 10
745.680271
 20
400.929559
 42
0.003647
  0
VERTEX
  8
0
 10
737.678888
 20
401.247572
 42
0.423744
  0
SEQEND
  0
POLYLINE
  8
0
 66
1
 70
1
  0
VERTEX
  8
0
 10
733.000000
 20
385.184604
 42
0.295087
  0
VERTEX
  8
0
 10
733.251696
 20
384.795263
 42
0.026107
  0
VERTEX
  8
0
 10
734.395313
 20
384.350619
 42
0.027532
  0
VERTEX
  8
0
 10
735.929585
 20
383.936602
 42
0.017575
  0
VERTEX
  8
0
 10
737.750000
 20
383.617792
 42
-0.003921
  0
VERTEX
  8
0
 10
739.894966
 20
383.302234
 42
-0.002382
  0
VERTEX
  8
0
 10
742.426562
 20
382.897136
 42
-0.002386
  0
VERTEX
  8
0
 10
744.934187
 20
382.471313
 42
-0.004210
  0
VERTEX
  8
0
 10
747.000000
 20
382.092413
 42
0.002368
  0
VERTEX
  8
0
 10
749.468671
 20
381.630219
 42
0.000550
  0
VERTEX
  8
0
 10
753.622756
 20
380.877540
 42
0.000567
  0
VERTEX
  8
0
 10
758.406920
 20
380.021733
 42
0.000556
  0
VERTEX
  8
0
 10
763.226403
 20
379.170776
 42
-0.004959
  0
VERTEX
  8
0
 10
768.489560
 20
378.193608
 42
-0.003096
  0
VERTEX
  8
0
 10
774.636349
 20
376.949626
 42
-0.003106
  0
VERTEX
  8
0
 10
780.679941
 20
375.648291
 42
-0.005640
  0
VERTEX
  8
0
 10
785.601909
 20
374.498036
 42
0.007121
  0
VERTEX
  8
0
 10
789.781573
 20
373.534307
 42
0.010103
  0
VERTEX
  8
0
 10
793.526595
 20
372.805640
 42
0.006544
  0
VERTEX
  8
0
 10
796.662722
 20
372.303150
 42
0.128753
  0
VERTEX
  8
0
 10
797.625506
 20
372.409787
 42
0.171043
  0
VERTEX
  8
0
 10
798.762788
 20
373.377889
 42
0.253254
  0
VERTEX
  8
0
 10
798.802101
 20
374.658170
 42
0.131884
  0
VERTEX
  8
0
 10
797.535393
 20
376.080371
 42
0.050116
  0
VERTEX
  8
0
 10
795.160127
 20
377.319253
 42
0.050656
  0
VERTEX
  8
0
 10
789.952006
 20
378.813403
 42
0.006399
  0
VERTEX
  8
0
 10
778.395737
 20
380.741973
 42
0.007798
  0
VERTEX
  8
0
 10
765.129698
 20
382.570440
 42
0.008137
  0
VERTEX
  8
0
 10
752.000000
 20
383.955454
 42
-0.001602
  0
VERTEX
  8
0
 10
746.975889
 20
384.419128
 42
-0.001882
  0
VERTEX
  8
0
 10
742.217188
 20
384.891773
 42
-0.001653
  0
VERTEX
  8
0
 10
738.199112
 20
385.319563
 42
-0.011643
  0
VERTEX
  8
0
 10
736.250000
 20
385.579657
 42
0.025791
  0
VERTEX
  8
0
 10
735.004162
 20
385.710164
 42
0.043468
  0
VERTEX
  8
0
 10
733.954687
 20
385.674385
 42
0.056864
  0
VERTEX
  8
0
 10
733.220270
 20
385.498883
 42
0.315544
  0
SEQEND
  0
POLYLINE
  8
0
 66
1
 70
1
  0
VERTEX
  8
0
 10
740.000000
 20
368.763590
 42
0.001139
  0
VERTEX
  8
0
 10
731.771103
 20
367.936674
 42
0.617833
  0
VERTEX
  8
0
 10
731.631694
 20
367.567986
 42
0.192336
  0
VERTEX
  8
0
 10
732.376176
 20
367.212561
 42
0.000735
  0
VERTEX
  8
0
 10
742.000000
 20
366.596630
 42
-0.007849
  0
VERTEX
  8
0
 10
747.620862
 20
366.156511
 42
-0.004867
  0
VERTEX
  8
0
 10
754.206250
 20
365.471995
 42
-0.004881
  0
VERTEX
  8
0
 10
760.695794
 20
364.669286
 42
-0.008774
  0
VERTEX
  8
0
 10
766.000000
 20
363.865592
 42
0.003198
  0
VERTEX
  8
0
 10
781.870310
 20
361.279574
 42
0.026688
  0
VERTEX
  8
0
 10
789.108939
 20
360.540356
 42
0.075759
  0
VERTEX
  8
0
 10
792.769282
 20
360.918058
 42
0.341615
  0
VERTEX
  8
0
 10
794.000000
 20
362.509164
 42
0.293271
  0
VERTEX
  8
0
 10
793.088893
 20
363.928919
 42
0.043504
  0
VERTEX
  8
0
 10
789.728180
 20
365.128164
 42
0.027697
  0
VERTEX
  8
0
 10
784.142369
 20
366.262940
 42
0.007377
  0
VERTEX
  8
0
 10
775.133405
 20
367.443429
 42
0.006713
  0
VERTEX
  8
0
 10
763.992264
 20
368.585053
 42
0.012783
  0
VERTEX
  8
0
 10
755.003873
 20
369.153178
 42
0.015358
  0
VERTEX
  8
0
 10
747.261683
 20
369.206169
 42
0.018503
  0
SEQEND
  0
ENDSEC
  0
EOF
