G04 #@! TF.GenerationSoftware,KiCad,Pcbnew,(5.1.4)-1*
G04 #@! TF.CreationDate,2021-08-16T11:20:49+02:00*
G04 #@! TF.ProjectId,lionsled,6c696f6e-736c-4656-942e-6b696361645f,1.0*
G04 #@! TF.SameCoordinates,Original*
G04 #@! TF.FileFunction,Legend,Top*
G04 #@! TF.FilePolarity,Positive*
%FSLAX46Y46*%
G04 Gerber Fmt 4.6, Leading zero omitted, Abs format (unit mm)*
G04 Created by KiCad (PCBNEW (5.1.4)-1) date 2021-08-16 11:20:49*
%MOMM*%
%LPD*%
G04 APERTURE LIST*
%ADD10C,0.300000*%
%ADD11C,0.120000*%
%ADD12C,0.150000*%
G04 APERTURE END LIST*
D10*
X91253571Y-103448571D02*
X92325000Y-103448571D01*
X92539285Y-103520000D01*
X92682142Y-103662857D01*
X92753571Y-103877142D01*
X92753571Y-104020000D01*
X92753571Y-102020000D02*
X92753571Y-102734285D01*
X91253571Y-102734285D01*
X92610714Y-100662857D02*
X92682142Y-100734285D01*
X92753571Y-100948571D01*
X92753571Y-101091428D01*
X92682142Y-101305714D01*
X92539285Y-101448571D01*
X92396428Y-101520000D01*
X92110714Y-101591428D01*
X91896428Y-101591428D01*
X91610714Y-101520000D01*
X91467857Y-101448571D01*
X91325000Y-101305714D01*
X91253571Y-101091428D01*
X91253571Y-100948571D01*
X91325000Y-100734285D01*
X91396428Y-100662857D01*
X91253571Y-99591428D02*
X92325000Y-99591428D01*
X92539285Y-99662857D01*
X92682142Y-99805714D01*
X92753571Y-100020000D01*
X92753571Y-100162857D01*
X92753571Y-98162857D02*
X92753571Y-98877142D01*
X91253571Y-98877142D01*
X92610714Y-96805714D02*
X92682142Y-96877142D01*
X92753571Y-97091428D01*
X92753571Y-97234285D01*
X92682142Y-97448571D01*
X92539285Y-97591428D01*
X92396428Y-97662857D01*
X92110714Y-97734285D01*
X91896428Y-97734285D01*
X91610714Y-97662857D01*
X91467857Y-97591428D01*
X91325000Y-97448571D01*
X91253571Y-97234285D01*
X91253571Y-97091428D01*
X91325000Y-96877142D01*
X91396428Y-96805714D01*
X91253571Y-95734285D02*
X92325000Y-95734285D01*
X92539285Y-95805714D01*
X92682142Y-95948571D01*
X92753571Y-96162857D01*
X92753571Y-96305714D01*
X92753571Y-94305714D02*
X92753571Y-95020000D01*
X91253571Y-95020000D01*
X92610714Y-92948571D02*
X92682142Y-93020000D01*
X92753571Y-93234285D01*
X92753571Y-93377142D01*
X92682142Y-93591428D01*
X92539285Y-93734285D01*
X92396428Y-93805714D01*
X92110714Y-93877142D01*
X91896428Y-93877142D01*
X91610714Y-93805714D01*
X91467857Y-93734285D01*
X91325000Y-93591428D01*
X91253571Y-93377142D01*
X91253571Y-93234285D01*
X91325000Y-93020000D01*
X91396428Y-92948571D01*
X91253571Y-91877142D02*
X92325000Y-91877142D01*
X92539285Y-91948571D01*
X92682142Y-92091428D01*
X92753571Y-92305714D01*
X92753571Y-92448571D01*
X92753571Y-90448571D02*
X92753571Y-91162857D01*
X91253571Y-91162857D01*
X92610714Y-89091428D02*
X92682142Y-89162857D01*
X92753571Y-89377142D01*
X92753571Y-89520000D01*
X92682142Y-89734285D01*
X92539285Y-89877142D01*
X92396428Y-89948571D01*
X92110714Y-90020000D01*
X91896428Y-90020000D01*
X91610714Y-89948571D01*
X91467857Y-89877142D01*
X91325000Y-89734285D01*
X91253571Y-89520000D01*
X91253571Y-89377142D01*
X91325000Y-89162857D01*
X91396428Y-89091428D01*
D11*
X99266093Y-64770000D02*
G75*
G03X99266093Y-64770000I-4016093J0D01*
G01*
X98425000Y-60325000D02*
X99695000Y-60325000D01*
X99060000Y-59690000D02*
X99060000Y-60960000D01*
X83820000Y-78740000D02*
X83820000Y-76200000D01*
X83820000Y-76200000D02*
X81150000Y-76200000D01*
X81150000Y-78740000D02*
X81150000Y-116970000D01*
X81150000Y-73530000D02*
X81150000Y-76200000D01*
X96520000Y-76200000D02*
X99190000Y-76200000D01*
X96520000Y-76200000D02*
X96520000Y-114300000D01*
X96520000Y-114300000D02*
X99190000Y-114300000D01*
X83820000Y-78740000D02*
X81150000Y-78740000D01*
X83820000Y-78740000D02*
X83820000Y-114300000D01*
X83820000Y-114300000D02*
X81150000Y-114300000D01*
X81150000Y-116970000D02*
X99190000Y-116970000D01*
X99190000Y-116970000D02*
X99190000Y-73530000D01*
X99190000Y-73530000D02*
X81150000Y-73530000D01*
X86995000Y-59055000D02*
X83185000Y-59055000D01*
X83185000Y-59055000D02*
X83185000Y-70485000D01*
X83185000Y-70485000D02*
X86995000Y-70485000D01*
X86995000Y-70485000D02*
X86995000Y-59055000D01*
X70866000Y-107950000D02*
X70866000Y-97790000D01*
X71882000Y-107950000D02*
X70866000Y-107950000D01*
X78105000Y-107950000D02*
X78994000Y-107950000D01*
X78994000Y-107950000D02*
X78994000Y-97790000D01*
X78740000Y-97790000D02*
X78994000Y-97790000D01*
X71120000Y-97790000D02*
X70866000Y-97790000D01*
X78105000Y-97790000D02*
X78740000Y-97790000D01*
X71755000Y-97790000D02*
X71120000Y-97790000D01*
X78105000Y-97790000D02*
X77470000Y-97790000D01*
X77470000Y-107950000D02*
X78105000Y-107950000D01*
X71755000Y-97790000D02*
X72390000Y-97790000D01*
X72390000Y-107950000D02*
X71755000Y-107950000D01*
X77470000Y-107950000D02*
X72390000Y-107950000D01*
X72390000Y-97790000D02*
X77470000Y-97790000D01*
X72390000Y-86360000D02*
X77470000Y-86360000D01*
X77470000Y-96520000D02*
X72390000Y-96520000D01*
X72390000Y-96520000D02*
X71755000Y-96520000D01*
X71755000Y-86360000D02*
X72390000Y-86360000D01*
X77470000Y-96520000D02*
X78105000Y-96520000D01*
X78105000Y-86360000D02*
X77470000Y-86360000D01*
X71755000Y-86360000D02*
X71120000Y-86360000D01*
X78105000Y-86360000D02*
X78740000Y-86360000D01*
X71120000Y-86360000D02*
X70866000Y-86360000D01*
X78740000Y-86360000D02*
X78994000Y-86360000D01*
X78994000Y-96520000D02*
X78994000Y-86360000D01*
X78105000Y-96520000D02*
X78994000Y-96520000D01*
X71882000Y-96520000D02*
X70866000Y-96520000D01*
X70866000Y-96520000D02*
X70866000Y-86360000D01*
X77470000Y-81280000D02*
X72390000Y-81280000D01*
X72390000Y-71120000D02*
X77470000Y-71120000D01*
X77470000Y-71120000D02*
X78105000Y-71120000D01*
X78105000Y-81280000D02*
X77470000Y-81280000D01*
X72390000Y-71120000D02*
X71755000Y-71120000D01*
X71755000Y-81280000D02*
X72390000Y-81280000D01*
X78105000Y-81280000D02*
X78740000Y-81280000D01*
X71755000Y-81280000D02*
X71120000Y-81280000D01*
X78740000Y-81280000D02*
X78994000Y-81280000D01*
X71120000Y-81280000D02*
X70866000Y-81280000D01*
X70866000Y-71120000D02*
X70866000Y-81280000D01*
X71755000Y-71120000D02*
X70866000Y-71120000D01*
X77978000Y-71120000D02*
X78994000Y-71120000D01*
X78994000Y-71120000D02*
X78994000Y-81280000D01*
X78994000Y-59690000D02*
X78994000Y-69850000D01*
X77978000Y-59690000D02*
X78994000Y-59690000D01*
X71755000Y-59690000D02*
X70866000Y-59690000D01*
X70866000Y-59690000D02*
X70866000Y-69850000D01*
X71120000Y-69850000D02*
X70866000Y-69850000D01*
X78740000Y-69850000D02*
X78994000Y-69850000D01*
X71755000Y-69850000D02*
X71120000Y-69850000D01*
X78105000Y-69850000D02*
X78740000Y-69850000D01*
X71755000Y-69850000D02*
X72390000Y-69850000D01*
X72390000Y-59690000D02*
X71755000Y-59690000D01*
X78105000Y-69850000D02*
X77470000Y-69850000D01*
X77470000Y-59690000D02*
X78105000Y-59690000D01*
X72390000Y-59690000D02*
X77470000Y-59690000D01*
X77470000Y-69850000D02*
X72390000Y-69850000D01*
X72390000Y-113030000D02*
X77470000Y-113030000D01*
X77470000Y-123190000D02*
X72390000Y-123190000D01*
X72390000Y-123190000D02*
X71755000Y-123190000D01*
X71755000Y-113030000D02*
X72390000Y-113030000D01*
X77470000Y-123190000D02*
X78105000Y-123190000D01*
X78105000Y-113030000D02*
X77470000Y-113030000D01*
X71755000Y-113030000D02*
X71120000Y-113030000D01*
X78105000Y-113030000D02*
X78740000Y-113030000D01*
X71120000Y-113030000D02*
X70866000Y-113030000D01*
X78740000Y-113030000D02*
X78994000Y-113030000D01*
X78994000Y-123190000D02*
X78994000Y-113030000D01*
X78105000Y-123190000D02*
X78994000Y-123190000D01*
X71882000Y-123190000D02*
X70866000Y-123190000D01*
X70866000Y-123190000D02*
X70866000Y-113030000D01*
X125730000Y-66040000D02*
X125730000Y-60960000D01*
X135890000Y-60960000D02*
X135890000Y-66040000D01*
X135890000Y-66040000D02*
X135890000Y-66675000D01*
X125730000Y-66675000D02*
X125730000Y-66040000D01*
X135890000Y-60960000D02*
X135890000Y-60325000D01*
X125730000Y-60325000D02*
X125730000Y-60960000D01*
X125730000Y-66675000D02*
X125730000Y-67310000D01*
X125730000Y-60325000D02*
X125730000Y-59690000D01*
X125730000Y-67310000D02*
X125730000Y-67564000D01*
X125730000Y-59690000D02*
X125730000Y-59436000D01*
X135890000Y-59436000D02*
X125730000Y-59436000D01*
X135890000Y-60325000D02*
X135890000Y-59436000D01*
X135890000Y-66548000D02*
X135890000Y-67564000D01*
X135890000Y-67564000D02*
X125730000Y-67564000D01*
X124460000Y-67564000D02*
X114300000Y-67564000D01*
X124460000Y-66548000D02*
X124460000Y-67564000D01*
X124460000Y-60325000D02*
X124460000Y-59436000D01*
X124460000Y-59436000D02*
X114300000Y-59436000D01*
X114300000Y-59690000D02*
X114300000Y-59436000D01*
X114300000Y-67310000D02*
X114300000Y-67564000D01*
X114300000Y-60325000D02*
X114300000Y-59690000D01*
X114300000Y-66675000D02*
X114300000Y-67310000D01*
X114300000Y-60325000D02*
X114300000Y-60960000D01*
X124460000Y-60960000D02*
X124460000Y-60325000D01*
X114300000Y-66675000D02*
X114300000Y-66040000D01*
X124460000Y-66040000D02*
X124460000Y-66675000D01*
X124460000Y-60960000D02*
X124460000Y-66040000D01*
X114300000Y-66040000D02*
X114300000Y-60960000D01*
X102870000Y-66040000D02*
X102870000Y-60960000D01*
X113030000Y-60960000D02*
X113030000Y-66040000D01*
X113030000Y-66040000D02*
X113030000Y-66675000D01*
X102870000Y-66675000D02*
X102870000Y-66040000D01*
X113030000Y-60960000D02*
X113030000Y-60325000D01*
X102870000Y-60325000D02*
X102870000Y-60960000D01*
X102870000Y-66675000D02*
X102870000Y-67310000D01*
X102870000Y-60325000D02*
X102870000Y-59690000D01*
X102870000Y-67310000D02*
X102870000Y-67564000D01*
X102870000Y-59690000D02*
X102870000Y-59436000D01*
X113030000Y-59436000D02*
X102870000Y-59436000D01*
X113030000Y-60325000D02*
X113030000Y-59436000D01*
X113030000Y-66548000D02*
X113030000Y-67564000D01*
X113030000Y-67564000D02*
X102870000Y-67564000D01*
X133350000Y-88900000D02*
X133350000Y-92710000D01*
X133350000Y-81280000D02*
X133350000Y-77470000D01*
X132080000Y-81280000D02*
X134620000Y-81280000D01*
X132080000Y-88900000D02*
X132080000Y-81280000D01*
X134620000Y-88900000D02*
X132080000Y-88900000D01*
X134620000Y-81280000D02*
X134620000Y-88900000D01*
X129540000Y-81280000D02*
X129540000Y-88900000D01*
X129540000Y-88900000D02*
X127000000Y-88900000D01*
X127000000Y-88900000D02*
X127000000Y-81280000D01*
X127000000Y-81280000D02*
X129540000Y-81280000D01*
X128270000Y-81280000D02*
X128270000Y-77470000D01*
X128270000Y-88900000D02*
X128270000Y-92710000D01*
X121920000Y-88900000D02*
X121920000Y-92710000D01*
X121920000Y-81280000D02*
X121920000Y-77470000D01*
X120650000Y-81280000D02*
X123190000Y-81280000D01*
X120650000Y-88900000D02*
X120650000Y-81280000D01*
X123190000Y-88900000D02*
X120650000Y-88900000D01*
X123190000Y-81280000D02*
X123190000Y-88900000D01*
X118110000Y-81280000D02*
X118110000Y-88900000D01*
X118110000Y-88900000D02*
X115570000Y-88900000D01*
X115570000Y-88900000D02*
X115570000Y-81280000D01*
X115570000Y-81280000D02*
X118110000Y-81280000D01*
X116840000Y-81280000D02*
X116840000Y-77470000D01*
X116840000Y-88900000D02*
X116840000Y-92710000D01*
X110490000Y-88900000D02*
X110490000Y-92710000D01*
X110490000Y-81280000D02*
X110490000Y-77470000D01*
X109220000Y-81280000D02*
X111760000Y-81280000D01*
X109220000Y-88900000D02*
X109220000Y-81280000D01*
X111760000Y-88900000D02*
X109220000Y-88900000D01*
X111760000Y-81280000D02*
X111760000Y-88900000D01*
X106680000Y-81280000D02*
X106680000Y-88900000D01*
X106680000Y-88900000D02*
X104140000Y-88900000D01*
X104140000Y-88900000D02*
X104140000Y-81280000D01*
X104140000Y-81280000D02*
X106680000Y-81280000D01*
X105410000Y-81280000D02*
X105410000Y-77470000D01*
X105410000Y-88900000D02*
X105410000Y-92710000D01*
X133350000Y-119380000D02*
X133350000Y-123190000D01*
X133350000Y-111760000D02*
X133350000Y-107950000D01*
X132080000Y-111760000D02*
X134620000Y-111760000D01*
X132080000Y-119380000D02*
X132080000Y-111760000D01*
X134620000Y-119380000D02*
X132080000Y-119380000D01*
X134620000Y-111760000D02*
X134620000Y-119380000D01*
X129540000Y-111760000D02*
X129540000Y-119380000D01*
X129540000Y-119380000D02*
X127000000Y-119380000D01*
X127000000Y-119380000D02*
X127000000Y-111760000D01*
X127000000Y-111760000D02*
X129540000Y-111760000D01*
X128270000Y-111760000D02*
X128270000Y-107950000D01*
X128270000Y-119380000D02*
X128270000Y-123190000D01*
X121920000Y-119380000D02*
X121920000Y-123190000D01*
X121920000Y-111760000D02*
X121920000Y-107950000D01*
X120650000Y-111760000D02*
X123190000Y-111760000D01*
X120650000Y-119380000D02*
X120650000Y-111760000D01*
X123190000Y-119380000D02*
X120650000Y-119380000D01*
X123190000Y-111760000D02*
X123190000Y-119380000D01*
X118110000Y-111760000D02*
X118110000Y-119380000D01*
X118110000Y-119380000D02*
X115570000Y-119380000D01*
X115570000Y-119380000D02*
X115570000Y-111760000D01*
X115570000Y-111760000D02*
X118110000Y-111760000D01*
X116840000Y-111760000D02*
X116840000Y-107950000D01*
X116840000Y-119380000D02*
X116840000Y-123190000D01*
X111760000Y-111760000D02*
X111760000Y-119380000D01*
X111760000Y-119380000D02*
X109220000Y-119380000D01*
X109220000Y-119380000D02*
X109220000Y-111760000D01*
X109220000Y-111760000D02*
X111760000Y-111760000D01*
X110490000Y-111760000D02*
X110490000Y-107950000D01*
X110490000Y-119380000D02*
X110490000Y-123190000D01*
X105410000Y-119380000D02*
X105410000Y-123190000D01*
X105410000Y-111760000D02*
X105410000Y-107950000D01*
X104140000Y-111760000D02*
X106680000Y-111760000D01*
X104140000Y-119380000D02*
X104140000Y-111760000D01*
X106680000Y-119380000D02*
X104140000Y-119380000D01*
X106680000Y-111760000D02*
X106680000Y-119380000D01*
D12*
X90527142Y-64936666D02*
X90574761Y-64984285D01*
X90622380Y-65127142D01*
X90622380Y-65222380D01*
X90574761Y-65365238D01*
X90479523Y-65460476D01*
X90384285Y-65508095D01*
X90193809Y-65555714D01*
X90050952Y-65555714D01*
X89860476Y-65508095D01*
X89765238Y-65460476D01*
X89670000Y-65365238D01*
X89622380Y-65222380D01*
X89622380Y-65127142D01*
X89670000Y-64984285D01*
X89717619Y-64936666D01*
X90622380Y-63984285D02*
X90622380Y-64555714D01*
X90622380Y-64270000D02*
X89622380Y-64270000D01*
X89765238Y-64365238D01*
X89860476Y-64460476D01*
X89908095Y-64555714D01*
X89455714Y-72556666D02*
X89931904Y-72556666D01*
X89360476Y-72842380D02*
X89693809Y-71842380D01*
X90027142Y-72842380D01*
X90884285Y-72842380D02*
X90312857Y-72842380D01*
X90598571Y-72842380D02*
X90598571Y-71842380D01*
X90503333Y-71985238D01*
X90408095Y-72080476D01*
X90312857Y-72128095D01*
X80367142Y-64936666D02*
X80414761Y-64984285D01*
X80462380Y-65127142D01*
X80462380Y-65222380D01*
X80414761Y-65365238D01*
X80319523Y-65460476D01*
X80224285Y-65508095D01*
X80033809Y-65555714D01*
X79890952Y-65555714D01*
X79700476Y-65508095D01*
X79605238Y-65460476D01*
X79510000Y-65365238D01*
X79462380Y-65222380D01*
X79462380Y-65127142D01*
X79510000Y-64984285D01*
X79557619Y-64936666D01*
X79557619Y-64555714D02*
X79510000Y-64508095D01*
X79462380Y-64412857D01*
X79462380Y-64174761D01*
X79510000Y-64079523D01*
X79557619Y-64031904D01*
X79652857Y-63984285D01*
X79748095Y-63984285D01*
X79890952Y-64031904D01*
X80462380Y-64603333D01*
X80462380Y-63984285D01*
X74596666Y-102322380D02*
X74596666Y-103036666D01*
X74549047Y-103179523D01*
X74453809Y-103274761D01*
X74310952Y-103322380D01*
X74215714Y-103322380D01*
X75596666Y-103322380D02*
X75025238Y-103322380D01*
X75310952Y-103322380D02*
X75310952Y-102322380D01*
X75215714Y-102465238D01*
X75120476Y-102560476D01*
X75025238Y-102608095D01*
X74596666Y-90892380D02*
X74596666Y-91606666D01*
X74549047Y-91749523D01*
X74453809Y-91844761D01*
X74310952Y-91892380D01*
X74215714Y-91892380D01*
X75025238Y-90987619D02*
X75072857Y-90940000D01*
X75168095Y-90892380D01*
X75406190Y-90892380D01*
X75501428Y-90940000D01*
X75549047Y-90987619D01*
X75596666Y-91082857D01*
X75596666Y-91178095D01*
X75549047Y-91320952D01*
X74977619Y-91892380D01*
X75596666Y-91892380D01*
X74596666Y-75652380D02*
X74596666Y-76366666D01*
X74549047Y-76509523D01*
X74453809Y-76604761D01*
X74310952Y-76652380D01*
X74215714Y-76652380D01*
X75501428Y-75985714D02*
X75501428Y-76652380D01*
X75263333Y-75604761D02*
X75025238Y-76319047D01*
X75644285Y-76319047D01*
X74596666Y-64222380D02*
X74596666Y-64936666D01*
X74549047Y-65079523D01*
X74453809Y-65174761D01*
X74310952Y-65222380D01*
X74215714Y-65222380D01*
X74977619Y-64222380D02*
X75644285Y-64222380D01*
X75215714Y-65222380D01*
X74596666Y-117562380D02*
X74596666Y-118276666D01*
X74549047Y-118419523D01*
X74453809Y-118514761D01*
X74310952Y-118562380D01*
X74215714Y-118562380D01*
X74977619Y-117562380D02*
X75596666Y-117562380D01*
X75263333Y-117943333D01*
X75406190Y-117943333D01*
X75501428Y-117990952D01*
X75549047Y-118038571D01*
X75596666Y-118133809D01*
X75596666Y-118371904D01*
X75549047Y-118467142D01*
X75501428Y-118514761D01*
X75406190Y-118562380D01*
X75120476Y-118562380D01*
X75025238Y-118514761D01*
X74977619Y-118467142D01*
X130476666Y-62952380D02*
X130476666Y-63666666D01*
X130429047Y-63809523D01*
X130333809Y-63904761D01*
X130190952Y-63952380D01*
X130095714Y-63952380D01*
X131429047Y-62952380D02*
X130952857Y-62952380D01*
X130905238Y-63428571D01*
X130952857Y-63380952D01*
X131048095Y-63333333D01*
X131286190Y-63333333D01*
X131381428Y-63380952D01*
X131429047Y-63428571D01*
X131476666Y-63523809D01*
X131476666Y-63761904D01*
X131429047Y-63857142D01*
X131381428Y-63904761D01*
X131286190Y-63952380D01*
X131048095Y-63952380D01*
X130952857Y-63904761D01*
X130905238Y-63857142D01*
X119046666Y-62952380D02*
X119046666Y-63666666D01*
X118999047Y-63809523D01*
X118903809Y-63904761D01*
X118760952Y-63952380D01*
X118665714Y-63952380D01*
X119951428Y-62952380D02*
X119760952Y-62952380D01*
X119665714Y-63000000D01*
X119618095Y-63047619D01*
X119522857Y-63190476D01*
X119475238Y-63380952D01*
X119475238Y-63761904D01*
X119522857Y-63857142D01*
X119570476Y-63904761D01*
X119665714Y-63952380D01*
X119856190Y-63952380D01*
X119951428Y-63904761D01*
X119999047Y-63857142D01*
X120046666Y-63761904D01*
X120046666Y-63523809D01*
X119999047Y-63428571D01*
X119951428Y-63380952D01*
X119856190Y-63333333D01*
X119665714Y-63333333D01*
X119570476Y-63380952D01*
X119522857Y-63428571D01*
X119475238Y-63523809D01*
X107616666Y-62952380D02*
X107616666Y-63666666D01*
X107569047Y-63809523D01*
X107473809Y-63904761D01*
X107330952Y-63952380D01*
X107235714Y-63952380D01*
X108235714Y-63380952D02*
X108140476Y-63333333D01*
X108092857Y-63285714D01*
X108045238Y-63190476D01*
X108045238Y-63142857D01*
X108092857Y-63047619D01*
X108140476Y-63000000D01*
X108235714Y-62952380D01*
X108426190Y-62952380D01*
X108521428Y-63000000D01*
X108569047Y-63047619D01*
X108616666Y-63142857D01*
X108616666Y-63190476D01*
X108569047Y-63285714D01*
X108521428Y-63333333D01*
X108426190Y-63380952D01*
X108235714Y-63380952D01*
X108140476Y-63428571D01*
X108092857Y-63476190D01*
X108045238Y-63571428D01*
X108045238Y-63761904D01*
X108092857Y-63857142D01*
X108140476Y-63904761D01*
X108235714Y-63952380D01*
X108426190Y-63952380D01*
X108521428Y-63904761D01*
X108569047Y-63857142D01*
X108616666Y-63761904D01*
X108616666Y-63571428D01*
X108569047Y-63476190D01*
X108521428Y-63428571D01*
X108426190Y-63380952D01*
X133802380Y-87161666D02*
X133326190Y-87495000D01*
X133802380Y-87733095D02*
X132802380Y-87733095D01*
X132802380Y-87352142D01*
X132850000Y-87256904D01*
X132897619Y-87209285D01*
X132992857Y-87161666D01*
X133135714Y-87161666D01*
X133230952Y-87209285D01*
X133278571Y-87256904D01*
X133326190Y-87352142D01*
X133326190Y-87733095D01*
X133802380Y-86209285D02*
X133802380Y-86780714D01*
X133802380Y-86495000D02*
X132802380Y-86495000D01*
X132945238Y-86590238D01*
X133040476Y-86685476D01*
X133088095Y-86780714D01*
X128722380Y-87161666D02*
X128246190Y-87495000D01*
X128722380Y-87733095D02*
X127722380Y-87733095D01*
X127722380Y-87352142D01*
X127770000Y-87256904D01*
X127817619Y-87209285D01*
X127912857Y-87161666D01*
X128055714Y-87161666D01*
X128150952Y-87209285D01*
X128198571Y-87256904D01*
X128246190Y-87352142D01*
X128246190Y-87733095D01*
X127722380Y-86828333D02*
X127722380Y-86209285D01*
X128103333Y-86542619D01*
X128103333Y-86399761D01*
X128150952Y-86304523D01*
X128198571Y-86256904D01*
X128293809Y-86209285D01*
X128531904Y-86209285D01*
X128627142Y-86256904D01*
X128674761Y-86304523D01*
X128722380Y-86399761D01*
X128722380Y-86685476D01*
X128674761Y-86780714D01*
X128627142Y-86828333D01*
X122372380Y-87161666D02*
X121896190Y-87495000D01*
X122372380Y-87733095D02*
X121372380Y-87733095D01*
X121372380Y-87352142D01*
X121420000Y-87256904D01*
X121467619Y-87209285D01*
X121562857Y-87161666D01*
X121705714Y-87161666D01*
X121800952Y-87209285D01*
X121848571Y-87256904D01*
X121896190Y-87352142D01*
X121896190Y-87733095D01*
X121372380Y-86256904D02*
X121372380Y-86733095D01*
X121848571Y-86780714D01*
X121800952Y-86733095D01*
X121753333Y-86637857D01*
X121753333Y-86399761D01*
X121800952Y-86304523D01*
X121848571Y-86256904D01*
X121943809Y-86209285D01*
X122181904Y-86209285D01*
X122277142Y-86256904D01*
X122324761Y-86304523D01*
X122372380Y-86399761D01*
X122372380Y-86637857D01*
X122324761Y-86733095D01*
X122277142Y-86780714D01*
X117292380Y-87161666D02*
X116816190Y-87495000D01*
X117292380Y-87733095D02*
X116292380Y-87733095D01*
X116292380Y-87352142D01*
X116340000Y-87256904D01*
X116387619Y-87209285D01*
X116482857Y-87161666D01*
X116625714Y-87161666D01*
X116720952Y-87209285D01*
X116768571Y-87256904D01*
X116816190Y-87352142D01*
X116816190Y-87733095D01*
X116292380Y-86828333D02*
X116292380Y-86161666D01*
X117292380Y-86590238D01*
X110942380Y-87161666D02*
X110466190Y-87495000D01*
X110942380Y-87733095D02*
X109942380Y-87733095D01*
X109942380Y-87352142D01*
X109990000Y-87256904D01*
X110037619Y-87209285D01*
X110132857Y-87161666D01*
X110275714Y-87161666D01*
X110370952Y-87209285D01*
X110418571Y-87256904D01*
X110466190Y-87352142D01*
X110466190Y-87733095D01*
X110942380Y-86685476D02*
X110942380Y-86495000D01*
X110894761Y-86399761D01*
X110847142Y-86352142D01*
X110704285Y-86256904D01*
X110513809Y-86209285D01*
X110132857Y-86209285D01*
X110037619Y-86256904D01*
X109990000Y-86304523D01*
X109942380Y-86399761D01*
X109942380Y-86590238D01*
X109990000Y-86685476D01*
X110037619Y-86733095D01*
X110132857Y-86780714D01*
X110370952Y-86780714D01*
X110466190Y-86733095D01*
X110513809Y-86685476D01*
X110561428Y-86590238D01*
X110561428Y-86399761D01*
X110513809Y-86304523D01*
X110466190Y-86256904D01*
X110370952Y-86209285D01*
X105862380Y-87637857D02*
X105386190Y-87971190D01*
X105862380Y-88209285D02*
X104862380Y-88209285D01*
X104862380Y-87828333D01*
X104910000Y-87733095D01*
X104957619Y-87685476D01*
X105052857Y-87637857D01*
X105195714Y-87637857D01*
X105290952Y-87685476D01*
X105338571Y-87733095D01*
X105386190Y-87828333D01*
X105386190Y-88209285D01*
X105862380Y-86685476D02*
X105862380Y-87256904D01*
X105862380Y-86971190D02*
X104862380Y-86971190D01*
X105005238Y-87066428D01*
X105100476Y-87161666D01*
X105148095Y-87256904D01*
X105862380Y-85733095D02*
X105862380Y-86304523D01*
X105862380Y-86018809D02*
X104862380Y-86018809D01*
X105005238Y-86114047D01*
X105100476Y-86209285D01*
X105148095Y-86304523D01*
X133802380Y-117641666D02*
X133326190Y-117975000D01*
X133802380Y-118213095D02*
X132802380Y-118213095D01*
X132802380Y-117832142D01*
X132850000Y-117736904D01*
X132897619Y-117689285D01*
X132992857Y-117641666D01*
X133135714Y-117641666D01*
X133230952Y-117689285D01*
X133278571Y-117736904D01*
X133326190Y-117832142D01*
X133326190Y-118213095D01*
X132897619Y-117260714D02*
X132850000Y-117213095D01*
X132802380Y-117117857D01*
X132802380Y-116879761D01*
X132850000Y-116784523D01*
X132897619Y-116736904D01*
X132992857Y-116689285D01*
X133088095Y-116689285D01*
X133230952Y-116736904D01*
X133802380Y-117308333D01*
X133802380Y-116689285D01*
X128722380Y-117641666D02*
X128246190Y-117975000D01*
X128722380Y-118213095D02*
X127722380Y-118213095D01*
X127722380Y-117832142D01*
X127770000Y-117736904D01*
X127817619Y-117689285D01*
X127912857Y-117641666D01*
X128055714Y-117641666D01*
X128150952Y-117689285D01*
X128198571Y-117736904D01*
X128246190Y-117832142D01*
X128246190Y-118213095D01*
X128055714Y-116784523D02*
X128722380Y-116784523D01*
X127674761Y-117022619D02*
X128389047Y-117260714D01*
X128389047Y-116641666D01*
X122372380Y-117641666D02*
X121896190Y-117975000D01*
X122372380Y-118213095D02*
X121372380Y-118213095D01*
X121372380Y-117832142D01*
X121420000Y-117736904D01*
X121467619Y-117689285D01*
X121562857Y-117641666D01*
X121705714Y-117641666D01*
X121800952Y-117689285D01*
X121848571Y-117736904D01*
X121896190Y-117832142D01*
X121896190Y-118213095D01*
X121372380Y-116784523D02*
X121372380Y-116975000D01*
X121420000Y-117070238D01*
X121467619Y-117117857D01*
X121610476Y-117213095D01*
X121800952Y-117260714D01*
X122181904Y-117260714D01*
X122277142Y-117213095D01*
X122324761Y-117165476D01*
X122372380Y-117070238D01*
X122372380Y-116879761D01*
X122324761Y-116784523D01*
X122277142Y-116736904D01*
X122181904Y-116689285D01*
X121943809Y-116689285D01*
X121848571Y-116736904D01*
X121800952Y-116784523D01*
X121753333Y-116879761D01*
X121753333Y-117070238D01*
X121800952Y-117165476D01*
X121848571Y-117213095D01*
X121943809Y-117260714D01*
X117292380Y-117641666D02*
X116816190Y-117975000D01*
X117292380Y-118213095D02*
X116292380Y-118213095D01*
X116292380Y-117832142D01*
X116340000Y-117736904D01*
X116387619Y-117689285D01*
X116482857Y-117641666D01*
X116625714Y-117641666D01*
X116720952Y-117689285D01*
X116768571Y-117736904D01*
X116816190Y-117832142D01*
X116816190Y-118213095D01*
X116720952Y-117070238D02*
X116673333Y-117165476D01*
X116625714Y-117213095D01*
X116530476Y-117260714D01*
X116482857Y-117260714D01*
X116387619Y-117213095D01*
X116340000Y-117165476D01*
X116292380Y-117070238D01*
X116292380Y-116879761D01*
X116340000Y-116784523D01*
X116387619Y-116736904D01*
X116482857Y-116689285D01*
X116530476Y-116689285D01*
X116625714Y-116736904D01*
X116673333Y-116784523D01*
X116720952Y-116879761D01*
X116720952Y-117070238D01*
X116768571Y-117165476D01*
X116816190Y-117213095D01*
X116911428Y-117260714D01*
X117101904Y-117260714D01*
X117197142Y-117213095D01*
X117244761Y-117165476D01*
X117292380Y-117070238D01*
X117292380Y-116879761D01*
X117244761Y-116784523D01*
X117197142Y-116736904D01*
X117101904Y-116689285D01*
X116911428Y-116689285D01*
X116816190Y-116736904D01*
X116768571Y-116784523D01*
X116720952Y-116879761D01*
X110942380Y-118117857D02*
X110466190Y-118451190D01*
X110942380Y-118689285D02*
X109942380Y-118689285D01*
X109942380Y-118308333D01*
X109990000Y-118213095D01*
X110037619Y-118165476D01*
X110132857Y-118117857D01*
X110275714Y-118117857D01*
X110370952Y-118165476D01*
X110418571Y-118213095D01*
X110466190Y-118308333D01*
X110466190Y-118689285D01*
X110942380Y-117165476D02*
X110942380Y-117736904D01*
X110942380Y-117451190D02*
X109942380Y-117451190D01*
X110085238Y-117546428D01*
X110180476Y-117641666D01*
X110228095Y-117736904D01*
X109942380Y-116546428D02*
X109942380Y-116451190D01*
X109990000Y-116355952D01*
X110037619Y-116308333D01*
X110132857Y-116260714D01*
X110323333Y-116213095D01*
X110561428Y-116213095D01*
X110751904Y-116260714D01*
X110847142Y-116308333D01*
X110894761Y-116355952D01*
X110942380Y-116451190D01*
X110942380Y-116546428D01*
X110894761Y-116641666D01*
X110847142Y-116689285D01*
X110751904Y-116736904D01*
X110561428Y-116784523D01*
X110323333Y-116784523D01*
X110132857Y-116736904D01*
X110037619Y-116689285D01*
X109990000Y-116641666D01*
X109942380Y-116546428D01*
X105862380Y-118117857D02*
X105386190Y-118451190D01*
X105862380Y-118689285D02*
X104862380Y-118689285D01*
X104862380Y-118308333D01*
X104910000Y-118213095D01*
X104957619Y-118165476D01*
X105052857Y-118117857D01*
X105195714Y-118117857D01*
X105290952Y-118165476D01*
X105338571Y-118213095D01*
X105386190Y-118308333D01*
X105386190Y-118689285D01*
X105862380Y-117165476D02*
X105862380Y-117736904D01*
X105862380Y-117451190D02*
X104862380Y-117451190D01*
X105005238Y-117546428D01*
X105100476Y-117641666D01*
X105148095Y-117736904D01*
X104957619Y-116784523D02*
X104910000Y-116736904D01*
X104862380Y-116641666D01*
X104862380Y-116403571D01*
X104910000Y-116308333D01*
X104957619Y-116260714D01*
X105052857Y-116213095D01*
X105148095Y-116213095D01*
X105290952Y-116260714D01*
X105862380Y-116832142D01*
X105862380Y-116213095D01*
M02*
