G04 #@! TF.GenerationSoftware,KiCad,Pcbnew,(5.1.4)-1*
G04 #@! TF.CreationDate,2021-08-16T11:20:49+02:00*
G04 #@! TF.ProjectId,lionsled,6c696f6e-736c-4656-942e-6b696361645f,1.0*
G04 #@! TF.SameCoordinates,Original*
G04 #@! TF.FileFunction,Legend,Bot*
G04 #@! TF.FilePolarity,Positive*
%FSLAX46Y46*%
G04 Gerber Fmt 4.6, Leading zero omitted, Abs format (unit mm)*
G04 Created by KiCad (PCBNEW (5.1.4)-1) date 2021-08-16 11:20:49*
%MOMM*%
%LPD*%
G04 APERTURE LIST*
%ADD10C,0.300000*%
G04 APERTURE END LIST*
D10*
X87443571Y-103448571D02*
X88515000Y-103448571D01*
X88729285Y-103520000D01*
X88872142Y-103662857D01*
X88943571Y-103877142D01*
X88943571Y-104020000D01*
X88943571Y-102020000D02*
X88943571Y-102734285D01*
X87443571Y-102734285D01*
X88800714Y-100662857D02*
X88872142Y-100734285D01*
X88943571Y-100948571D01*
X88943571Y-101091428D01*
X88872142Y-101305714D01*
X88729285Y-101448571D01*
X88586428Y-101520000D01*
X88300714Y-101591428D01*
X88086428Y-101591428D01*
X87800714Y-101520000D01*
X87657857Y-101448571D01*
X87515000Y-101305714D01*
X87443571Y-101091428D01*
X87443571Y-100948571D01*
X87515000Y-100734285D01*
X87586428Y-100662857D01*
X87443571Y-99591428D02*
X88515000Y-99591428D01*
X88729285Y-99662857D01*
X88872142Y-99805714D01*
X88943571Y-100020000D01*
X88943571Y-100162857D01*
X88943571Y-98162857D02*
X88943571Y-98877142D01*
X87443571Y-98877142D01*
X88800714Y-96805714D02*
X88872142Y-96877142D01*
X88943571Y-97091428D01*
X88943571Y-97234285D01*
X88872142Y-97448571D01*
X88729285Y-97591428D01*
X88586428Y-97662857D01*
X88300714Y-97734285D01*
X88086428Y-97734285D01*
X87800714Y-97662857D01*
X87657857Y-97591428D01*
X87515000Y-97448571D01*
X87443571Y-97234285D01*
X87443571Y-97091428D01*
X87515000Y-96877142D01*
X87586428Y-96805714D01*
X87443571Y-95734285D02*
X88515000Y-95734285D01*
X88729285Y-95805714D01*
X88872142Y-95948571D01*
X88943571Y-96162857D01*
X88943571Y-96305714D01*
X88943571Y-94305714D02*
X88943571Y-95020000D01*
X87443571Y-95020000D01*
X88800714Y-92948571D02*
X88872142Y-93020000D01*
X88943571Y-93234285D01*
X88943571Y-93377142D01*
X88872142Y-93591428D01*
X88729285Y-93734285D01*
X88586428Y-93805714D01*
X88300714Y-93877142D01*
X88086428Y-93877142D01*
X87800714Y-93805714D01*
X87657857Y-93734285D01*
X87515000Y-93591428D01*
X87443571Y-93377142D01*
X87443571Y-93234285D01*
X87515000Y-93020000D01*
X87586428Y-92948571D01*
X87443571Y-91877142D02*
X88515000Y-91877142D01*
X88729285Y-91948571D01*
X88872142Y-92091428D01*
X88943571Y-92305714D01*
X88943571Y-92448571D01*
X88943571Y-90448571D02*
X88943571Y-91162857D01*
X87443571Y-91162857D01*
X88800714Y-89091428D02*
X88872142Y-89162857D01*
X88943571Y-89377142D01*
X88943571Y-89520000D01*
X88872142Y-89734285D01*
X88729285Y-89877142D01*
X88586428Y-89948571D01*
X88300714Y-90020000D01*
X88086428Y-90020000D01*
X87800714Y-89948571D01*
X87657857Y-89877142D01*
X87515000Y-89734285D01*
X87443571Y-89520000D01*
X87443571Y-89377142D01*
X87515000Y-89162857D01*
X87586428Y-89091428D01*
M02*
