M48
; DRILL file {KiCad (5.1.4)-1} date 16/08/2021 11:21:45
; FORMAT={-:-/ absolute / inch / decimal}
; #@! TF.CreationDate,2021-08-16T11:21:45+02:00
; #@! TF.GenerationSoftware,Kicad,Pcbnew,(5.1.4)-1
FMAT,2
INCH
T1C0.0197
T2C0.0236
T3C0.0394
T4C0.0701
%
G90
G05
T1
X4.35Y-3.75
X4.6Y-3.85
X4.8Y-3.95
X5.05Y-4.05
X5.25Y-4.15
T2
X4.15Y-3.05
X4.15Y-3.65
X4.6Y-4.25
X4.6Y-4.85
X5.05Y-4.25
X5.05Y-4.85
X4.15Y-4.25
X4.15Y-4.85
X4.8Y-4.25
X4.8Y-4.85
X3.75Y-2.475
X3.75Y-2.625
X5.25Y-4.25
X5.25Y-4.85
X5.05Y-3.05
X5.05Y-3.65
X4.6Y-3.05
X4.6Y-3.65
X3.35Y-2.4
X3.35Y-2.7
X4.35Y-4.25
X4.35Y-4.85
X4.35Y-3.05
X4.35Y-3.65
X5.25Y-3.05
X5.25Y-3.65
X4.8Y-3.05
X4.8Y-3.65
T3
X2.95Y-3.95
X2.95Y-4.15
X2.95Y-4.55
X2.95Y-4.75
X4.6Y-2.5
X4.8Y-2.5
X2.95Y-3.5
X2.95Y-3.7
X2.95Y-2.9
X2.95Y-3.1
X3.25Y-3.05
X3.25Y-3.15
X3.25Y-3.25
X3.25Y-3.35
X3.25Y-3.45
X3.25Y-3.55
X3.25Y-3.65
X3.25Y-3.75
X3.25Y-3.85
X3.25Y-3.95
X3.25Y-4.05
X3.25Y-4.15
X3.25Y-4.25
X3.25Y-4.35
X3.25Y-4.45
X3.85Y-3.05
X3.85Y-3.15
X3.85Y-3.25
X3.85Y-3.35
X3.85Y-3.45
X3.85Y-3.55
X3.85Y-3.65
X3.85Y-3.75
X3.85Y-3.85
X3.85Y-3.95
X3.85Y-4.05
X3.85Y-4.15
X3.85Y-4.25
X3.85Y-4.35
X3.85Y-4.45
X2.95Y-2.45
X2.95Y-2.65
X5.05Y-2.5
X5.25Y-2.5
X4.15Y-2.5
X4.35Y-2.5
T4
X3.25Y-2.95
X3.25Y-4.55
X3.85Y-2.95
X3.85Y-4.55
T0
M30
